<svg width="1031" height="967" viewBox="0 0 1031 967" fill="none" xmlns="http://www.w3.org/2000/svg">
<g opacity="0.49">
<path d="M-279.63 0C-206.669 6.92675 -134.581 29.5405 -76.549 73.7786C7.64636 137.982 58.3731 216.592 153.366 263.391C266.722 319.212 420.823 279.223 512.556 366.157C555.891 407.223 574.08 468.428 581.094 527.713C588.079 587.027 585.722 647.36 596.461 706.091C601.263 732.314 608.829 758.508 623.177 780.976C638.194 804.492 660.051 822.973 683.45 838.165C715.318 858.887 750.707 874.167 787.639 883.189C841.945 896.46 899.919 896.431 950.937 919.278C994.387 938.778 1031.7 984.005 1028.85 1029H-279.601V0H-279.63Z" fill="#EBEDF1"/>
</g>
<path d="M130.042 220.917C130.74 216.435 134.96 213.38 139.413 214.107C143.895 214.806 146.951 219.026 146.223 223.479C145.524 227.961 141.305 231.017 136.852 230.289C132.37 229.59 129.314 225.37 130.042 220.917Z" fill="#0C113E"/>
<path d="M611.961 325.548C620.459 324.675 628.055 330.845 628.957 339.343C629.83 347.842 623.66 355.438 615.162 356.34C606.664 357.213 599.068 351.043 598.166 342.545C597.293 334.047 603.462 326.45 611.961 325.548Z" fill="#E9EEF5"/>
<path d="M126.491 426.947C144.302 425.084 160.251 438.007 162.113 455.818C163.976 473.63 151.054 489.579 133.243 491.412C115.432 493.275 99.4835 480.353 97.6209 462.541C95.7583 444.73 108.68 428.781 126.491 426.918V426.947Z" stroke="#222831" stroke-miterlimit="10"/>
<path d="M307.604 75.9245C313.861 59.248 332.429 50.8078 349.076 57.0652C365.752 63.3225 374.192 81.8909 367.935 98.5383C361.678 115.215 343.11 123.655 326.463 117.398C309.787 111.14 301.347 92.572 307.604 75.9245Z" fill="#F2F2F2"/>
<path d="M379.31 359.25C398.751 359.367 415.776 363.616 430.415 370.892L430.881 363.878C526.485 378.343 542.899 444.903 607.479 464.403C607.479 464.403 580.558 515.248 590.832 579.335C590.832 579.335 551.251 581.023 489.844 554.975C484.518 569.963 476.893 583.584 466.998 594.789L481.433 672.613C441.998 668.597 399.653 652.153 376.72 607.595C372.034 598.485 368.193 589.55 365.05 580.877C361.266 580.528 305.941 576.162 248.928 607.624C248.928 607.624 248.695 607.187 248.346 606.372C276.169 697.002 351.313 749.477 427.505 762.952C457.976 768.336 486.322 768.016 510.827 765.018L514.465 775.234L238.131 777.3L242.263 705.122C242.263 705.122 130.915 357.621 379.339 359.221L379.31 359.25Z" fill="#A5B0C1"/>
<path d="M242.234 705.151C242.234 705.151 345.346 715.454 479.395 684.517L500.029 785.566L229.865 781.957C229.865 781.957 221.629 746.362 242.234 705.122V705.151Z" fill="#63799A"/>
<path d="M265.749 707.451C263.188 717.113 260.918 726.834 259.463 736.729C258.095 745.926 257.513 755.21 257.659 764.495C257.746 770.345 258.095 776.165 258.59 781.986C258.765 783.907 255.738 783.907 255.592 781.986C254.719 771.945 254.341 761.875 254.923 751.805C255.476 742.346 256.844 732.975 258.794 723.691C259.987 717.957 261.384 712.282 262.868 706.636C263.363 704.773 266.273 705.559 265.779 707.451H265.749Z" fill="white"/>
<path d="M322.442 707.742C319.357 717.753 312.751 726.281 304.34 732.393C295.929 738.505 285.743 742.143 275.382 742.579C269.562 742.812 263.654 741.968 258.153 739.989C256.349 739.349 257.135 736.438 258.968 737.078C268.252 740.425 278.38 740.28 287.722 737.37C297.064 734.459 305.621 728.842 311.849 721.246C315.283 717.026 317.931 712.136 319.532 706.956C320.085 705.122 322.995 705.908 322.442 707.771V707.742Z" fill="white"/>
<path d="M337.954 715.687C334.199 728.726 325.992 740.193 315.399 748.546C304.747 756.957 291.825 762.429 278.292 763.855C270.755 764.64 263.042 764.087 255.737 762.137C253.875 761.643 254.661 758.732 256.552 759.227C269.125 762.603 282.512 761.468 294.648 756.928C306.784 752.388 317.553 744.53 325.265 734.314C329.659 728.493 333.035 721.945 335.043 714.931C335.567 713.068 338.478 713.854 337.954 715.746V715.687Z" fill="white"/>
<path d="M412.341 207.968C413.913 208.608 414.99 206.309 415.019 204.621C415.368 191.845 407.627 179.184 396.073 173.713C384.519 168.241 369.822 170.22 360.16 178.573C357.802 180.61 355.678 183.026 352.796 184.248C345.753 187.246 338.128 182.007 330.62 180.523C319.008 178.224 306.843 185.966 302.128 196.821C297.413 207.677 299.392 220.657 305.3 230.873C310.888 240.565 320.172 251.071 315.574 261.257C312.46 268.126 304.107 271.153 300.207 277.585C296.715 283.318 297.646 291.351 302.361 296.124C305.708 299.529 310.713 301.421 314.031 304.622C317.989 308.435 317.669 315.274 313.1 318.301C308.531 321.299 304.98 315.682 301.895 320.368C298.81 325.083 302.361 331.049 307.512 333.668C315.661 337.801 331.086 340.74 339.642 327.178C348.198 313.616 337.925 308.26 345.462 300.402C353 292.544 355.678 300.461 365.747 292.835C371.539 288.47 379.833 273.132 379.251 265.914" fill="#222831"/>
<path d="M476.805 251.042C478.289 241.234 474.302 231.135 467.725 223.743C461.147 216.351 452.213 211.374 442.929 207.881C426.02 201.507 407.132 199.703 389.786 204.738C376.108 208.725 363.303 217.34 356.696 230C352.709 237.655 351.167 246.357 350.584 254.971C349.74 267.544 350.846 280.437 355.474 292.166C360.101 303.895 368.454 314.402 379.659 320.164C397.673 329.419 421.072 324.705 436.031 311.026" fill="#222831"/>
<path d="M468.54 409.659C468.54 409.659 547.293 475.579 634.952 463.937C722.61 452.296 746.882 352.818 749.123 316.613C749.123 316.613 750.258 299.616 760.27 289.023C769.408 277.177 782.475 267.457 791.41 262.043C793.36 260.85 795.426 259.715 797.725 259.511C799.995 259.307 802.527 260.268 803.488 262.363C804.361 264.255 803.75 266.467 802.993 268.388C801.218 272.87 798.569 276.974 795.339 280.553C802.527 281.019 810.385 280.408 815.304 278.778C823.336 276.129 830.699 271.822 838.179 267.864C840.449 266.671 842.806 265.477 845.367 265.448C847.928 265.419 850.693 266.874 851.275 269.348C851.421 269.959 851.421 270.571 851.333 271.153C860.152 266.438 864.459 269.785 865.768 271.764C867.165 273.888 866.467 276.479 865.128 278.749C870.862 276.857 875.431 277.148 878.341 283.027C880 286.345 877.73 290.652 873.161 294.989C873.714 295.542 874.179 296.24 874.441 297.113C875.722 301.188 872.782 305.67 869.901 308.58C859.657 319.029 844.378 327.294 830.583 328.895C830.67 359.076 825.49 413.326 793.767 468.07C738.501 563.444 606.547 629.452 449.448 532.623L468.54 409.629V409.659Z" fill="#C8D0DE"/>
<path d="M468.54 409.659C468.54 409.659 547.293 475.579 634.952 463.937C722.61 452.296 746.882 352.818 749.123 316.613C749.123 316.613 750.258 299.616 760.27 289.023C769.408 277.177 782.475 267.457 791.41 262.043C793.36 260.85 795.426 259.715 797.725 259.511C799.995 259.307 802.527 260.268 803.488 262.363C804.361 264.255 803.75 266.467 802.993 268.388C801.218 272.87 798.569 276.974 795.339 280.553C802.527 281.019 810.385 280.408 815.304 278.778C823.336 276.129 830.699 271.822 838.179 267.864C840.449 266.671 842.806 265.477 845.367 265.448C847.928 265.419 850.693 266.874 851.275 269.348C851.421 269.959 851.421 270.571 851.333 271.153C860.152 266.438 864.459 269.785 865.768 271.764C867.165 273.888 866.467 276.479 865.128 278.749C870.862 276.857 875.431 277.148 878.341 283.027C880 286.345 877.73 290.652 873.161 294.989C873.714 295.542 874.179 296.24 874.441 297.113C875.722 301.188 872.782 305.67 869.901 308.58C859.657 319.029 844.378 327.294 830.583 328.895C830.67 359.076 825.49 413.326 793.767 468.07C738.501 563.444 606.547 629.452 449.448 532.623L468.54 409.629V409.659Z" fill="#C8D0DE"/>
<g style="mix-blend-mode:overlay" opacity="0.76">
<path d="M468.54 409.659C468.54 409.659 547.293 475.579 634.952 463.937C722.61 452.296 746.882 352.818 749.123 316.613C749.123 316.613 750.258 299.616 760.27 289.023C769.408 277.177 782.475 267.457 791.41 262.043C793.36 260.85 795.426 259.715 797.725 259.511C799.995 259.307 802.527 260.268 803.488 262.363C804.361 264.255 803.75 266.467 802.993 268.388C801.218 272.87 798.569 276.974 795.339 280.553C802.527 281.019 810.385 280.408 815.304 278.778C823.336 276.129 830.699 271.822 838.179 267.864C840.449 266.671 842.806 265.477 845.367 265.448C847.928 265.419 850.693 266.874 851.275 269.348C851.421 269.959 851.421 270.571 851.333 271.153C860.152 266.438 864.459 269.785 865.768 271.764C867.165 273.888 866.467 276.479 865.128 278.749C870.862 276.857 875.431 277.148 878.341 283.027C880 286.345 877.73 290.652 873.161 294.989C873.714 295.542 874.179 296.24 874.441 297.113C875.722 301.188 872.782 305.67 869.901 308.58C859.657 319.029 844.378 327.294 830.583 328.895C830.67 359.076 825.49 413.326 793.767 468.07C738.501 563.444 606.547 629.452 449.448 532.623L468.54 409.629V409.659Z" fill="url(#paint0_linear_2_12762)"/>
</g>
<path d="M420.433 517.722C519.791 582.391 590.832 579.364 590.832 579.364C580.558 515.277 607.479 464.432 607.479 464.432C542.899 444.933 526.485 378.343 430.881 363.907" fill="#A5B0C1"/>
<path d="M580.325 453.722C572.292 467.896 566.123 483.146 561.786 498.862C557.392 514.811 554.831 531.371 554.86 547.932C554.86 556.925 555.675 565.889 557.45 574.707C557.828 576.541 555.005 577.327 554.627 575.493C551.367 559.282 551.251 542.547 553.317 526.162C555.383 509.776 559.72 492.954 565.919 477.238C569.295 468.652 573.224 460.3 577.793 452.267C578.724 450.637 581.227 452.092 580.296 453.751L580.325 453.722Z" fill="white"/>
<g style="mix-blend-mode:soft-light">
<path d="M768.069 491.266C756.34 487.046 737.511 496.447 726.015 512.25C717.604 523.804 716.76 537.396 720.805 544.555C737.802 532.797 750.025 522.291 758.378 514.404C763.587 509.485 770.601 503.024 775.345 495.05C773.948 493.449 770.31 492.081 768.069 491.266Z" fill="#222831"/>
</g>
<path d="M828.866 308.347C835.094 307.212 841.002 305.059 846.677 302.236C851.567 299.82 856.252 297.055 861.229 294.785C864.75 293.155 868.475 291.875 872.375 292.748C873.743 293.039 873.161 295.134 871.793 294.843C868.417 294.086 865.07 295.396 862.044 296.793C859.599 297.928 857.183 299.151 854.797 300.431C849.995 302.992 845.164 305.583 840.071 307.503C836.637 308.784 833.086 309.774 829.477 310.443C828.109 310.676 827.527 308.58 828.895 308.347H828.866Z" fill="#222831"/>
<path d="M819.611 297.55C828.4 295.076 837.102 292.195 845.338 288.208C849.878 285.996 854.128 283.289 858.493 280.786C860.647 279.535 862.888 278.429 865.216 277.527C866.525 277.003 867.078 279.127 865.798 279.622C861.811 281.165 858.086 283.58 854.36 285.792C848.831 289.081 843.039 291.846 837.044 294.145C831.544 296.27 825.897 298.045 820.193 299.646C818.855 300.024 818.272 297.929 819.611 297.55Z" fill="#222831"/>
<path d="M773.569 314.256C777.527 306.601 787.452 303.283 795.484 305.816C797.812 306.543 799.937 307.765 801.741 309.454C802.76 310.414 801.217 311.956 800.199 310.996C794.611 305.786 785.356 306.107 779.448 310.589C777.76 311.869 776.422 313.499 775.461 315.362C774.821 316.613 772.958 315.507 773.599 314.256H773.569Z" fill="#222831"/>
<path d="M814.401 287.655C819.32 286.694 824.005 284.832 828.516 282.707C833.347 280.437 838.033 277.818 842.66 275.14C845.047 273.743 847.404 272.346 849.791 270.949C851.013 270.251 852.09 272.113 850.896 272.812C841.845 278.109 832.823 283.697 822.957 287.393C820.367 288.382 817.719 289.197 814.983 289.721C813.615 289.983 813.033 287.888 814.401 287.626V287.655Z" fill="#222831"/>
<path d="M488.738 694.82C476.835 695.693 464.815 689.989 457.51 680.646C457.015 680.035 456.899 679.191 457.51 678.58C458.005 678.085 459.082 677.969 459.577 678.58C466.474 687.398 477.504 692.724 488.738 691.91C490.6 691.764 490.6 694.674 488.738 694.82Z" fill="white"/>
<path d="M497.469 711.321C479.949 713.475 461.73 707.392 448.634 695.663C444.996 692.404 441.765 688.678 439.03 684.604C437.982 683.032 440.514 681.577 441.532 683.12C450.816 697.002 466.561 706.228 483.063 708.353C487.836 708.964 492.696 708.964 497.469 708.382C498.254 708.295 498.924 709.109 498.924 709.837C498.924 710.71 498.254 711.205 497.469 711.292V711.321Z" fill="white"/>
<path d="M463.942 372.523C459.402 379.333 452.941 384.572 445.607 388.093C437.778 391.848 429.193 393.739 420.578 394.409C411.411 395.107 402.127 394.351 393.163 392.459C384.199 390.567 375.614 387.569 367.611 383.32C360.247 379.391 353.35 374.298 347.995 367.837C347.355 367.051 346.714 366.236 346.103 365.421C345.638 364.781 345.987 363.791 346.627 363.442C347.355 363.006 348.141 363.326 348.606 363.966C353.263 370.311 359.578 375.346 366.33 379.304C373.868 383.728 382.104 386.842 390.573 388.937C399.042 391.033 408.064 392.022 416.911 391.731C425.264 391.44 433.646 389.985 441.387 386.813C448.517 383.902 455.095 379.391 459.838 373.279C460.391 372.581 460.886 371.853 461.381 371.097C462.428 369.554 464.931 371.009 463.884 372.581L463.942 372.523Z" fill="white"/>
<path d="M491.153 460.853C494.762 477.995 497.061 495.515 496.596 513.065C496.13 530.615 492.696 548.892 486.06 565.627C481.898 576.133 476.602 586.116 470.374 595.546C469.326 597.147 466.707 595.662 467.783 594.032C478.29 578.054 486.118 560.476 490.193 541.791C493.86 524.91 494.384 507.506 492.754 490.335C491.852 480.702 490.251 471.126 488.243 461.668C487.836 459.776 490.746 458.961 491.153 460.853Z" fill="white"/>
<path d="M357.977 297.987C360.218 288.761 369.618 283.057 378.989 285.24C388.36 287.423 394.152 296.649 391.911 305.874C389.67 315.1 380.27 320.805 370.898 318.622C361.527 316.439 355.736 307.184 357.977 297.987Z" fill="#C8D0DE"/>
<path d="M372.761 293.011C379.047 293.331 384.082 299.443 383.064 305.671C382.976 306.282 382.22 306.602 381.667 306.457C381.026 306.282 380.794 305.671 380.881 305.06C381.667 300.316 377.447 295.514 372.761 295.252C371.306 295.164 371.306 292.923 372.761 292.982V293.011Z" fill="#222831"/>
<path d="M434.024 776.486H798.453L800.52 761.206H451.515C442.697 761.206 435.217 767.725 434.024 776.486Z" fill="#D3D9E1"/>
<path d="M609.981 776.485H929.242C940.156 776.485 949.469 768.569 951.244 757.771L978.921 587.659C981.133 574.096 970.656 561.785 956.919 561.785H637.658C626.744 561.785 617.431 569.701 615.656 580.499L587.979 750.612C585.767 764.174 596.244 776.485 609.981 776.485Z" fill="#D3D9E1"/>
<path d="M782.912 668.714C781.98 678.405 788.819 687.02 798.191 687.922C807.562 688.824 815.914 681.694 816.846 671.973C817.777 662.252 810.938 653.667 801.567 652.764C792.195 651.862 783.843 658.993 782.912 668.714Z" fill="#6B7D98"/>
<path d="M782.912 668.714C781.98 678.405 788.819 687.02 798.191 687.922C807.562 688.824 815.914 681.694 816.846 671.973C817.777 662.252 810.938 653.667 801.567 652.764C792.195 651.862 783.843 658.993 782.912 668.714Z" stroke="white" stroke-miterlimit="10"/>
<path d="M168.283 693.016H171.776C184.406 693.016 194.68 703.289 194.68 715.92V733.907C194.68 743.715 188.481 752.097 179.808 755.356L177.887 743.686C181.147 741.648 183.329 738.01 183.329 733.907V715.92C183.329 709.547 178.149 704.366 171.776 704.366H171.368L169.535 693.19V704.366H168.283C161.91 704.366 156.729 709.547 156.729 715.92V733.907C156.729 740.28 161.91 745.461 168.283 745.461H169.535V756.637H174.628C173.696 756.753 172.736 756.811 171.776 756.811H168.283C155.652 756.811 145.379 746.538 145.379 733.907V715.92C145.379 703.289 155.652 693.016 168.283 693.016Z" fill="#6B7D98"/>
<path style="mix-blend-mode:overlay" d="M168.283 693.016H171.776C184.406 693.016 194.68 703.289 194.68 715.92V733.907C194.68 743.715 188.481 752.097 179.808 755.356L177.887 743.686C181.147 741.648 183.329 738.01 183.329 733.907V715.92C183.329 709.547 178.149 704.366 171.776 704.366H171.368L169.535 693.19V704.366H168.283C161.91 704.366 156.729 709.547 156.729 715.92V733.907C156.729 740.28 161.91 745.461 168.283 745.461H169.535V756.637H174.628C173.696 756.753 172.736 756.811 171.776 756.811H168.283C155.652 756.811 145.379 746.538 145.379 733.907V715.92C145.379 703.289 155.652 693.016 168.283 693.016Z" fill="url(#paint1_linear_2_12762)"/>
<path d="M169.534 745.432H171.775C174.016 745.432 176.112 744.791 177.887 743.656L179.808 755.327C178.178 755.938 176.432 756.375 174.627 756.607H169.534V745.432Z" fill="#222831"/>
<path d="M169.535 693.19L171.368 704.366H169.535V693.19Z" fill="#EBEDF1"/>
<path d="M170.728 680.821H87.4056V741.678C87.4056 764.67 106.061 783.355 129.081 783.355C152.073 783.355 170.757 764.699 170.757 741.678V680.821H170.728Z" fill="#6B7D98"/>
<path fill-rule="evenodd" clip-rule="evenodd" d="M87.4056 680.297C87.4056 682.334 106.061 683.964 129.081 683.964C152.102 683.964 170.757 682.334 170.757 680.297C170.757 678.26 152.102 676.63 129.081 676.63C106.061 676.63 87.4056 678.26 87.4056 680.297Z" fill="#6B7D98"/>
<g style="mix-blend-mode:soft-light">
<path fill-rule="evenodd" clip-rule="evenodd" d="M87.4056 680.297C87.4056 682.334 106.061 683.964 129.081 683.964C152.102 683.964 170.757 682.334 170.757 680.297C170.757 678.26 152.102 676.63 129.081 676.63C106.061 676.63 87.4056 678.26 87.4056 680.297Z" fill="#EBEDF1"/>
</g>
<g style="mix-blend-mode:soft-light">
<path d="M90.1413 681.607C88.366 681.199 87.4056 680.763 87.4056 680.297C87.4056 678.26 106.061 676.63 129.081 676.63C152.102 676.63 170.757 678.26 170.757 680.297C170.757 680.763 169.767 681.199 168.021 681.607C162.026 680.239 146.863 679.249 129.11 679.249C111.357 679.249 96.1947 680.239 90.1994 681.607H90.1413Z" fill="#EBEDF1"/>
</g>
<path d="M90.1412 681.606C96.1364 680.239 111.299 679.249 129.052 679.249C146.805 679.249 161.968 680.239 167.963 681.606C161.968 682.974 146.805 683.964 129.052 683.964C111.299 683.964 96.1364 682.974 90.1412 681.606Z" fill="#222831"/>
<path d="M1025.6 774.478H-12.9712V786.09H1025.6C1028.6 786.09 1031.04 783.645 1031.04 780.648V779.949C1031.04 776.951 1028.6 774.507 1025.6 774.507V774.478Z" fill="#6B7D98"/>
<path d="M245.552 452.093L358.589 459.573C358.589 459.573 335.131 526.744 376.749 607.595C418.366 688.446 523.923 676.805 560.069 666.182L560.186 666.385C574.155 662.835 588.707 658.44 597.205 655.617C609.981 651.397 617.635 648.69 621.681 654.394C624.649 658.615 623.165 663.65 621.011 667.084C625.406 667.986 628.869 670.14 630.237 674.243C631.809 678.958 628.433 682.829 624.446 686.467C628.52 687.515 632.041 689.377 633.322 693.248C635.068 698.429 631.139 702.853 626.279 706.491C628.258 707.858 630.033 709.663 630.557 712.049C632.769 722.178 609.05 736.235 586.903 745.286C561.757 755.793 500.845 775.991 427.476 763.011C315.225 743.162 205.186 638.62 245.523 452.122L245.552 452.093Z" fill="#C8D0DE"/>
<path d="M598.34 675.524C606.11 673.429 613.561 670.315 620.516 666.24C621.651 665.571 622.67 667.346 621.535 667.986C614.434 672.148 606.809 675.35 598.864 677.474C597.583 677.824 597.059 675.844 598.311 675.495L598.34 675.524Z" fill="#222831"/>
<path d="M605.005 715.047C612.775 712.951 620.226 709.837 627.181 705.763C628.316 705.093 629.335 706.869 628.2 707.509C621.099 711.671 613.474 714.872 605.529 716.997C604.248 717.346 603.724 715.367 604.976 715.018L605.005 715.047Z" fill="#222831"/>
<path d="M602.385 694.383C610.156 692.288 617.664 689.261 624.62 685.186C625.755 684.517 626.773 686.292 625.638 686.933C618.537 691.095 610.854 694.209 602.909 696.333C601.628 696.683 601.104 694.703 602.356 694.354L602.385 694.383Z" fill="#222831"/>
<path d="M250.675 431.109C218.981 549.184 248.928 607.625 248.928 607.625C307.979 575.028 365.283 580.907 365.283 580.907C353.641 523.63 380.795 497.35 389.7 424.27" fill="#A5B0C1"/>
<path d="M359.054 556.343C343.193 553.695 326.895 553.811 310.976 556.023C295.406 558.177 280.097 562.309 265.459 568.043C257.746 571.07 250.209 574.62 242.933 578.637C241.245 579.568 239.702 576.978 241.42 576.046C254.865 568.625 269.213 562.804 283.997 558.642C299.655 554.219 315.865 551.628 332.134 551.395C341.418 551.25 350.673 551.919 359.84 553.462C360.655 553.607 361.091 554.597 360.888 555.324C360.655 556.168 359.84 556.518 359.025 556.372L359.054 556.343Z" fill="white"/>
<g style="mix-blend-mode:soft-light">
<path d="M391.242 744.384C399.362 734.401 420.956 732.83 439.495 740.833C453.057 746.683 460.973 758.383 461.206 766.881C445.258 767.347 403.233 758.849 386.818 751.602C387.197 749.448 389.7 746.276 391.242 744.384Z" fill="#222831"/>
</g>
<path d="M360.771 578.927C358.122 564.026 357.773 548.834 358.151 533.729C358.53 518.624 359.723 502.995 360.072 487.599C360.421 472.203 359.752 457.564 357.569 442.634C355.561 428.809 352.156 414.723 344.269 402.994C337.605 393.128 327.68 384.862 315.865 382.301C314.468 381.981 313.042 381.777 311.615 381.632C309.695 381.457 309.695 378.43 311.615 378.634C324.101 379.798 335.16 386.87 343.047 396.387C352.04 407.214 356.696 420.776 359.257 434.455C362.051 449.327 363.215 464.578 363.186 479.683C363.157 494.788 362.022 510.824 361.411 526.424C360.8 541.791 360.654 557.274 362.779 572.525C363.041 574.416 363.332 576.279 363.681 578.142C364.03 580.004 361.12 580.848 360.771 578.956V578.927Z" fill="white"/>
<path d="M245.93 608.875C240.342 586.64 236.937 563.88 235.831 540.976C235.511 534.514 235.395 528.053 235.424 521.592C235.424 519.642 238.45 519.642 238.421 521.592C238.247 544.235 240.313 566.907 244.62 589.143C245.843 595.487 247.24 601.803 248.84 608.06C249.306 609.952 246.396 610.738 245.93 608.875Z" fill="white"/>
<g style="mix-blend-mode:overlay">
<path d="M127.597 660.448C129.576 662.631 133.447 661.903 135.368 659.662C137.288 657.421 137.696 654.278 137.754 651.338C137.841 648.399 137.667 645.343 138.715 642.578C140.897 636.874 148.027 632.945 147.329 626.862C146.922 623.311 143.866 620.779 141.625 618.014C138.307 613.94 136.444 608.701 136.444 603.433C136.444 594.819 141.246 586.699 140.897 578.113C140.402 566.384 130.246 557.012 119.245 553.025C110.601 549.882 100.327 549.416 92.7607 554.655C85.0192 559.981 81.847 571.041 85.6013 579.655C88.1624 585.593 93.3136 589.9 97.8537 594.528C102.394 599.155 106.643 604.83 106.526 611.291C106.439 616.501 103.529 621.74 105.071 626.716C106.934 632.683 114.21 635.128 117.44 640.483C119.594 644.062 119.652 648.486 120.642 652.532C121.631 656.606 124.279 660.914 128.441 661.292" fill="url(#paint2_linear_2_12762)"/>
<path d="M142.672 659.43C142.439 660.448 140.78 660.681 140.227 659.779C139.674 658.877 140.547 657.538 141.595 657.625C142.643 657.712 143.312 659.051 142.788 659.983" fill="url(#paint3_linear_2_12762)"/>
</g>
<path d="M466.328 230.175C476.427 234.133 486.497 239.284 493.307 247.724C500.088 256.194 502.823 268.679 497.41 278.08C492.492 286.549 481.403 293.127 483.295 302.731C484.285 307.737 488.65 311.2 492.113 314.926C495.577 318.651 498.458 324.239 495.926 328.663C494.296 331.486 490.978 332.795 488.155 334.425C484.226 336.724 480.705 340.392 480.298 344.932C479.89 349.472 485.07 348.395 488.388 353.488C491.095 357.679 486.7 361.143 481.985 361.521C477.271 361.899 466.532 359.979 459.547 349.909C452.388 339.577 455.822 335.56 456.695 323.016C457.102 317.283 458.587 311.666 458.645 305.932C458.703 300.199 456.986 294 452.329 290.624" fill="#222831"/>
<path d="M433.441 372.405V357.33C433.441 357.33 470.17 367.836 472.643 335.414C476.951 278.924 481.374 263.848 459.46 244.959C437.545 226.071 376.428 246.705 376.603 294.29L375.09 363.296C375.09 363.296 383.268 371.212 400.671 374.239C418.919 377.411 433.441 372.435 433.441 372.435V372.405Z" fill="#C8D0DE"/>
<path style="mix-blend-mode:overlay" d="M433.441 372.405V357.33C433.441 357.33 470.17 367.836 472.643 335.414C476.951 278.924 481.374 263.848 459.46 244.959C437.545 226.071 376.428 246.705 376.603 294.29L375.09 363.296C375.09 363.296 383.268 371.212 400.671 374.239C418.919 377.411 433.441 372.435 433.441 372.435V372.405Z" fill="url(#paint4_linear_2_12762)"/>
<path d="M434.577 296.357C434.199 298.598 434.723 300.548 435.741 300.722C436.76 300.868 437.866 299.18 438.244 296.939C438.622 294.698 438.099 292.748 437.08 292.573C436.061 292.428 434.956 294.116 434.577 296.357Z" fill="#222831"/>
<path d="M463.592 300.723C463.214 302.964 463.737 304.914 464.756 305.089C465.775 305.234 466.88 303.546 467.259 301.305C467.637 299.064 467.113 297.114 466.095 296.939C465.076 296.794 463.97 298.482 463.592 300.723Z" fill="#222831"/>
<path d="M434.693 357.505C434.693 357.505 415.747 353.198 403.844 338.354L433.995 373.163L434.693 357.505Z" fill="#222831"/>
<g style="mix-blend-mode:soft-light">
<path d="M391.3 304.39C393.832 293.855 404.571 287.364 415.281 289.838C425.991 292.341 432.598 302.877 430.037 313.383C427.505 323.919 416.766 330.409 406.056 327.935C395.346 325.432 388.739 314.897 391.3 304.39Z" fill="#222831"/>
</g>
<path d="M465.484 316.73C466.823 311.171 470.49 306.776 475.176 304.215C474.506 313.004 473.575 323.191 472.644 335.414C472.615 335.822 472.527 336.142 472.469 336.52C466.619 331.951 463.622 324.355 465.455 316.73H465.484Z" fill="#C8D0DE"/>
<g style="mix-blend-mode:soft-light">
<path d="M465.484 316.73C466.823 311.171 470.49 306.776 475.176 304.215C474.506 313.004 473.575 323.191 472.644 335.414C472.615 335.822 472.527 336.142 472.469 336.52C466.619 331.951 463.622 324.355 465.455 316.73H465.484Z" fill="#222831"/>
</g>
<g style="mix-blend-mode:soft-light">
<path d="M457.743 284.802L452.591 283.58L445.752 311.898L458.092 314.78L457.743 284.802Z" fill="#222831"/>
</g>
<path d="M435.246 278.342C435.159 279.884 437.342 281.223 440.077 281.369C442.813 281.485 445.112 280.35 445.17 278.807C445.258 277.265 443.075 275.926 440.339 275.781C437.603 275.664 435.304 276.799 435.246 278.342Z" fill="#222831"/>
<path d="M464.146 282.155C463.331 283.464 464.582 285.676 466.94 287.073C469.297 288.47 471.858 288.528 472.673 287.219C473.488 285.909 472.236 283.697 469.879 282.3C467.522 280.903 464.961 280.845 464.146 282.155Z" fill="#222831"/>
<path d="M463.302 246.59C460.682 255.612 450.729 260.676 441.271 262.131C431.841 263.586 422.092 262.48 412.75 264.343C403.408 266.206 393.804 272.347 392.465 281.66C392.116 284.192 392.348 286.957 390.922 289.111C389.38 291.468 386.149 292.341 383.355 291.73C380.591 291.09 378.262 289.198 376.487 287.015C371.86 281.253 370.608 273.307 372.122 266.118C373.635 258.93 377.68 252.44 382.628 246.939C392.116 236.374 405.445 228.895 419.734 227.643C433.995 226.392 449.012 231.805 458.092 242.719" fill="#222831"/>
<path d="M444.064 329.332C446.713 330.002 451.311 329.478 453.523 326.946C454.309 326.043 455.706 324.035 453.93 322.667C452.155 321.299 449.303 322.9 446.946 322.289C444.647 321.707 442.464 317.661 439.262 318.185C436.847 318.564 435.683 319.728 435.45 321.678C435.101 324.559 438.418 328.226 443.657 329.332" fill="#222831"/>
<path d="M372.179 214.4C382.453 217.951 392.726 222.666 399.885 230.931C407.045 239.168 410.304 251.683 405.299 261.432C400.758 270.222 389.961 277.381 392.26 287.015C393.454 292.021 397.965 295.339 401.602 298.947C405.24 302.556 408.354 308.086 405.997 312.655C404.484 315.595 401.253 317.05 398.488 318.855C394.647 321.357 391.3 325.257 391.096 329.856C390.893 334.454 398.372 333.319 399.536 338.15C400.7 342.982 399.158 346.125 389.874 348.482C385.276 349.647 378.64 348.628 375.177 345.368C366.009 336.695 366.242 321.532 366.562 308.814C366.708 303.022 367.988 297.259 367.785 291.439C367.581 285.647 365.602 279.448 360.829 276.246" fill="#222831"/>
<path d="M392.697 302.614C392.697 292.37 384.81 284.075 375.09 284.075C365.369 284.075 357.482 292.37 357.482 302.614C357.482 312.859 365.369 321.154 375.09 321.154C384.81 321.154 392.697 312.859 392.697 302.614Z" fill="#6B7D98"/>
<path d="M375.089 299.821C373.547 299.821 372.324 298.569 372.324 297.056V274.18C372.324 259.424 378.407 245.804 389.03 236.811C396.48 230.495 409.547 223.394 429.308 226.973C438.418 228.603 445.839 233.493 444.326 233.493C442.812 233.493 439.465 232.62 429.745 231.223C415.688 229.214 402.039 233.085 392.668 241.06C383.296 249.005 377.941 261.083 377.941 274.18V297.056C377.941 298.598 376.69 299.821 375.147 299.821H375.089Z" fill="#6B7D98"/>
<path d="M384.52 302.615C384.52 297.143 380.3 292.69 375.09 292.69C369.881 292.69 365.661 297.143 365.661 302.615C365.661 308.086 369.881 312.539 375.09 312.539C380.3 312.539 384.52 308.086 384.52 302.615Z" fill="white"/>
<path d="M418.541 323.657C405.678 323.249 392.96 319.029 382.366 311.695C379.368 309.628 376.545 307.3 373.926 304.797C372.587 303.488 374.625 301.421 375.992 302.731C384.84 311.287 396.103 317.108 408.151 319.553C411.556 320.251 415.02 320.63 418.512 320.746C420.375 320.804 420.404 323.715 418.512 323.657H418.541Z" fill="white"/>
<path d="M425.875 321.911C426.224 326.276 422.993 330.118 418.657 330.467C414.321 330.817 410.537 327.557 410.188 323.162C409.839 318.797 413.069 314.955 417.406 314.606C421.742 314.256 425.525 317.516 425.875 321.911Z" fill="#6B7D98"/>
<defs>
<linearGradient id="paint0_linear_2_12762" x1="887.276" y1="658.497" x2="717.715" y2="468.017" gradientUnits="userSpaceOnUse">
<stop stop-color="white"/>
<stop offset="1" stop-color="white" stop-opacity="0"/>
</linearGradient>
<linearGradient id="paint1_linear_2_12762" x1="209.202" y1="774.448" x2="166.681" y2="720.695" gradientUnits="userSpaceOnUse">
<stop stop-color="white"/>
<stop offset="1" stop-color="white" stop-opacity="0"/>
</linearGradient>
<linearGradient id="paint2_linear_2_12762" x1="132.748" y1="643.859" x2="94.6794" y2="515.365" gradientUnits="userSpaceOnUse">
<stop stop-color="white"/>
<stop offset="1" stop-color="white" stop-opacity="0"/>
</linearGradient>
<linearGradient id="paint3_linear_2_12762" x1="141.679" y1="660.462" x2="141.373" y2="657.75" gradientUnits="userSpaceOnUse">
<stop stop-color="white"/>
<stop offset="1" stop-color="white" stop-opacity="0"/>
</linearGradient>
<linearGradient id="paint4_linear_2_12762" x1="313.682" y1="208.841" x2="432.513" y2="318.065" gradientUnits="userSpaceOnUse">
<stop stop-color="#0C113E"/>
<stop offset="1" stop-color="#0C113E" stop-opacity="0"/>
</linearGradient>
</defs>
</svg>
