<svg width="658" height="500" viewBox="0 0 658 500" fill="none" xmlns="http://www.w3.org/2000/svg">
<g clip-path="url(#clip0_222_1711)">
<mask id="mask0_222_1711" style="mask-type:luminance" maskUnits="userSpaceOnUse" x="-98" y="-142" width="898" height="737">
<path d="M-97.3174 -141.46H799.459V594.248H-97.3174V-141.46Z" fill="white"/>
</mask>
<g mask="url(#mask0_222_1711)">
<path d="M271.526 19.6432C251.057 39.2237 271.526 55.7912 271.526 61.6712V114.572L304.293 116.335L364.274 61.9633C364.274 61.9633 378.712 50.7957 378.712 35.2195C378.712 19.6432 364.828 12.5894 355.667 12.5894C346.503 12.5894 343.446 16.4112 343.446 16.4112C343.446 16.4112 334.561 -2.69198 319.565 0.540085C304.572 3.77214 302.905 18.1746 302.905 18.1746C302.905 18.1746 285.965 5.83044 271.526 19.6432Z" fill="#373535"/>
<path d="M370.871 155.72C359.279 164.206 333.251 159.758 329.664 159.106C329.534 159.073 329.388 159.039 329.242 159.022L332.524 180.922L337.488 213.961L239.002 212.799L274.39 129.695C253.117 125.623 239.018 106.922 250.368 88.7338C264.674 65.8427 283.573 92.4292 288.699 99.2219C293.838 106.015 298.431 106.015 304.119 93.2014C309.794 80.4024 323.925 67.5864 323.925 67.5864C323.925 67.5864 321.726 71.8463 318.977 76.707C316.212 81.5649 319.332 85.2434 322.275 83.1065C325.201 80.9836 337.86 71.8463 340.98 70.3074C344.1 68.7518 333.089 63.8911 333.089 63.8911C335.289 61.9591 365.002 60.7938 365.002 60.7938C362.075 101.55 370.693 108.547 376.933 122.133C383.173 135.718 383.351 146.599 370.871 155.72Z" fill="#C8D0DE"/>
<path d="M240.248 211.958L336.541 213.095L328.279 158.038L329.34 158.173C329.52 158.195 329.703 158.234 329.865 158.279C334.644 159.141 359.361 163.106 370.411 155.016C381.289 147.067 383.022 137.345 376.208 122.508C375.179 120.272 374.065 118.169 372.985 116.139C367.506 105.828 361.847 95.1712 364.131 61.6853C353.922 62.1065 340.255 63.0163 335.349 64.0019C338.536 65.5407 342.306 67.7451 342.346 69.5562C342.354 69.9325 342.232 70.6289 341.324 71.081C338.223 72.6142 325.294 81.9538 322.733 83.8127C321.245 84.8966 319.515 84.832 318.329 83.647C316.981 82.3048 316.445 79.4995 318.287 76.2647C319.157 74.7258 319.974 73.2404 320.685 71.9346C316.122 76.6353 308.581 85.1521 304.854 93.565C301.696 100.669 298.762 104.165 295.618 104.561C293.177 104.865 290.778 103.34 288.067 99.7596L287.539 99.0548C283.636 93.8458 273.262 80.0808 263.029 80.4795C258.566 80.6845 254.533 83.6189 251.042 89.2069C246.789 96.0249 245.995 103.228 248.747 110.037C252.498 119.318 262.379 126.529 274.536 128.854L275.554 129.047L240.248 211.958ZM338.438 214.828L237.76 213.64L273.236 130.331C261.015 127.7 251.116 120.25 247.261 110.711C244.284 103.345 245.125 95.584 249.694 88.2634C253.488 82.1924 257.951 78.9997 262.96 78.7694C274.055 78.2949 284.382 92.088 288.804 97.9933L289.33 98.6897C291.625 101.722 293.617 103.076 295.427 102.86C297.929 102.548 300.534 99.2682 303.389 92.8349C309.072 80.019 322.816 67.4642 323.399 66.9363L326.748 63.898L324.633 67.9978C324.612 68.0399 322.396 72.3278 319.672 77.1464C318.295 79.5669 318.563 81.5297 319.438 82.403C320.064 83.0292 320.956 83.0264 321.818 82.4002C325.442 79.7719 337.504 71.0782 340.64 69.531C340.658 69.5225 340.674 69.5141 340.69 69.5057C340.236 68.5847 336.663 66.3944 332.781 64.6815L331.547 64.1367L332.574 63.2325C334.869 61.2164 359.966 60.1353 364.972 59.9387L365.877 59.905L365.808 60.8597C363.388 94.5815 368.984 105.115 374.394 115.299C375.484 117.355 376.614 119.478 377.66 121.758C384.903 137.522 383.006 147.889 371.332 156.423C360.228 164.552 336.485 161.152 330.221 160.074L338.438 214.828Z" fill="#373535"/>
<path d="M332.526 180.159C322.89 176.618 306.562 167.172 306.952 143.905C306.952 143.905 320.757 157.027 329.244 158.259L332.526 180.159Z" fill="#373535"/>
<path d="M410.11 394C410.11 394 461.651 475.194 506.543 468.91C551.432 462.626 585.019 412.3 609.293 338.746C633.567 265.192 662.497 190.582 655.514 168.761C650.967 168.761 639.351 197.392 639.351 197.392C639.351 197.392 641.251 153.128 632.378 151.118C623.509 149.104 623.296 197.392 623.296 197.392C623.296 197.392 587.601 155.588 582.743 164.083C577.882 172.577 606.186 195.828 607.876 202.982C596.428 199.84 581.801 197.1 570.35 201.25C568.086 202.073 565.913 203.387 564.234 205.164C562.666 206.824 563.677 209.674 565.887 209.854C566.378 209.893 566.869 209.921 567.354 209.949C572.992 210.261 581.047 208.983 585.711 212.971C590.665 217.208 591.655 226.758 587.131 231.728C582.695 236.603 576.638 234.225 572.504 230.24C570.416 228.232 568.572 225.823 567.365 223.116C566.046 220.168 565.247 216.902 563.287 214.319C562.902 213.813 562.332 213.294 561.745 213.487C561.339 213.622 561.098 214.055 560.904 214.456C557.866 220.71 558.232 226.646 558.373 233.5C558.646 246.687 561.403 250.829 550.124 267.011C538.843 283.194 512.526 325.107 512.526 325.107L493.978 303.089C493.978 303.089 410.585 366.995 410.11 394Z" fill="#C8D0DE"/>
<path d="M410.928 393.747C413.987 398.473 463.671 474.071 506.437 468.062C547.708 462.286 582.058 418.682 608.532 338.465C613.231 324.222 618.126 309.879 622.859 296.013C641.837 240.416 659.775 187.855 654.971 169.791C652.068 171.462 645.339 184.803 640.094 197.728L638.343 202.047L638.545 197.352C638.55 197.243 639.012 186.193 638.385 175.048C637.314 155.928 634.058 152.37 632.211 151.954C631.67 151.831 631.187 151.974 630.689 152.398C625.43 156.874 624.154 186.398 624.106 197.394L624.095 199.601L622.697 197.964C614.499 188.363 591.955 163.796 584.852 163.796C584.757 163.796 584.664 163.802 584.571 163.813C584.043 163.863 583.682 164.091 583.435 164.526C580.742 169.235 590.466 180.164 598.28 188.948C603.48 194.791 607.969 199.837 608.662 202.774L608.993 204.17L607.675 203.811C591.628 199.405 579.506 198.835 570.612 202.058C568.32 202.892 566.312 204.176 564.807 205.768C564.303 206.301 564.152 207.045 564.399 207.756C564.653 208.478 565.232 208.941 565.951 209C566.434 209.039 566.917 209.067 567.397 209.095C568.676 209.163 570.079 209.151 571.565 209.14C576.651 209.098 582.406 209.042 586.224 212.305C588.856 214.557 590.572 218.345 590.814 222.434C591.042 226.303 589.912 229.906 587.715 232.321C582.799 237.718 576.158 234.915 571.96 230.875C569.604 228.603 567.811 226.115 566.635 223.484C566.219 222.551 565.853 221.588 565.489 220.628C564.691 218.522 563.934 216.534 562.658 214.855C562.297 214.38 562.029 214.273 561.99 214.304C561.934 214.324 561.822 214.431 561.623 214.846C558.888 220.482 559.01 225.862 559.151 232.096L559.183 233.48C559.23 235.704 559.35 237.718 559.456 239.492C559.989 248.439 560.31 253.839 550.775 267.52C539.637 283.5 513.463 325.163 513.2 325.579L512.619 326.502L493.864 304.235C486.424 310.011 411.888 368.505 410.928 393.747ZM501.701 470.095C488.39 470.095 468.112 463.1 440.922 434.419C422.583 415.068 409.569 394.679 409.439 394.477L409.299 394.252L409.304 393.983C409.506 382.531 423.767 363.622 451.691 337.771C472.389 318.615 493.296 302.555 493.506 302.395L494.095 301.941L512.433 323.711C516.371 317.455 539.241 281.183 549.475 266.503C558.66 253.325 558.368 248.45 557.843 239.599C557.734 237.808 557.615 235.777 557.567 233.517L557.538 232.138C557.394 225.941 557.259 220.086 560.185 214.063C560.363 213.695 560.735 212.925 561.507 212.673C561.971 212.51 562.905 212.451 563.918 213.782C565.346 215.663 566.182 217.862 566.988 219.988C567.344 220.92 567.694 221.849 568.097 222.751C569.182 225.183 570.849 227.488 573.051 229.608C576.882 233.303 582.446 235.648 586.55 231.133C588.434 229.066 589.4 225.932 589.201 222.54C588.986 218.923 587.495 215.593 585.205 213.636C581.841 210.758 576.402 210.808 571.578 210.85C570.074 210.864 568.641 210.876 567.315 210.803C566.821 210.774 566.322 210.746 565.826 210.704C564.481 210.598 563.353 209.693 562.884 208.348C562.417 207.015 562.717 205.56 563.664 204.557C565.343 202.783 567.564 201.359 570.09 200.441C578.989 197.212 590.907 197.633 606.481 201.721C604.969 198.961 601.129 194.645 597.102 190.118C588.487 180.436 578.723 169.46 582.05 163.639C582.565 162.743 583.382 162.212 584.417 162.108C584.539 162.097 584.664 162.089 584.791 162.089C593.146 162.089 616.123 187.855 622.514 195.215C622.66 186.676 623.602 156.237 629.675 151.067C630.559 150.309 631.527 150.051 632.551 150.278C640.391 152.058 640.553 181.242 640.298 193.002C643.925 184.5 651.519 167.907 655.514 167.907H656.095L656.281 168.488C662.004 186.367 644.567 237.448 624.379 296.594C619.649 310.457 614.756 324.795 610.057 339.029C583.366 419.904 548.575 463.889 506.649 469.758C505.124 469.971 503.474 470.095 501.701 470.095Z" fill="#373535"/>
<path d="M487.04 376.695L485.578 375.968C486.387 374.14 505.512 331.177 511.961 324.497L513.092 325.718C506.849 332.182 487.236 376.252 487.04 376.695Z" fill="#373535"/>
<path d="M607.975 272.025C607.689 270.585 601.133 236.644 613.552 225.973L614.571 227.304C602.913 237.315 609.49 271.332 609.557 271.674L607.975 272.025Z" fill="#373535"/>
<path d="M630.548 220.105L629.073 219.401L638.614 197.04L640.089 197.745L630.548 220.105Z" fill="#373535"/>
<path d="M613.298 216.207C611.768 211.517 608.958 204.545 607.504 203.739L608.255 202.225C610.802 203.638 614.177 213.654 614.827 215.648L613.298 216.207Z" fill="#373535"/>
<path d="M620.176 215.295L618.732 214.523C618.791 214.405 624.309 202.631 622.744 187.976L624.349 187.782C625.973 202.965 620.412 214.798 620.176 215.295Z" fill="#373535"/>
<path d="M519.715 315.522L516.781 310.897C516.781 310.897 502.568 307.502 499.808 310.178C497.052 312.857 509.723 327.549 509.723 327.549L519.715 315.522Z" fill="#373535"/>
<path d="M517.906 313.705C517.906 313.705 481.428 292.765 412.381 403.568L409.874 406.221L410.423 472.539H128.453L106.854 361.821C106.854 361.821 60.6033 334.959 37.242 331.401L26.1199 364.078C26.1199 364.078 -7.19883 354.994 2.84082 332.409C3.97373 329.843 5.67174 327.105 8.04635 324.179C31.3254 295.573 165.149 126.408 250.362 191.254C250.362 191.254 291.263 232.215 331.953 196.522C331.953 196.522 384.719 157.58 433.883 203.641C483.043 249.701 517.906 313.705 517.906 313.705Z" fill="#7787A0"/>
<path d="M129.111 471.681H409.609L409.062 405.869L411.75 403.024C431.495 371.347 461.205 330.619 490.698 316.306C503.794 309.949 512.287 310.977 516.052 312.075C509.621 300.747 476.923 245.108 433.347 204.279C385.215 159.185 332.937 196.835 332.417 197.223C320.011 208.104 307.527 211.898 296.164 211.9C270.229 211.903 250.094 192.16 249.807 191.873C215.04 165.427 167.914 175.095 109.825 220.687C63.6493 256.927 25.0401 304.541 10.5033 322.464L8.65937 324.736C6.42008 327.493 4.70877 330.195 3.5732 332.77C1.34718 337.777 1.18269 342.486 3.08237 346.768C7.56891 356.871 22.2171 361.973 25.6159 363.038L36.7062 330.45L37.3589 330.549C60.5955 334.09 106.779 360.8 107.244 361.069L107.57 361.26L107.647 361.645L129.111 471.681ZM411.238 473.391H127.795L106.137 362.381C101.993 360.002 59.8871 336.058 37.7781 332.349L26.632 365.102L25.9183 364.908C25.1489 364.697 7.00909 359.626 1.62047 347.501C-0.496772 342.733 -0.33228 337.532 2.10865 332.043C3.30524 329.33 5.09879 326.497 7.43359 323.618L9.27756 321.35C23.8435 303.384 62.5403 255.667 108.862 219.311C167.583 173.228 215.348 163.551 250.834 190.556C251.322 191.034 291.778 230.65 331.438 195.861C332.024 195.426 385.345 157.026 434.416 202.999C483.115 248.621 518.257 312.633 518.607 313.274L520.016 315.863L517.524 314.456C517.432 314.405 508.382 309.511 491.112 317.988C475.052 325.87 448.475 347.195 413.055 404.038L412.952 404.173L410.686 406.571L411.238 473.391Z" fill="#373535"/>
<path d="M269.928 260.687C269.066 260.687 268.199 260.569 267.331 260.33C251.635 256.031 240.046 226.92 247.811 190.433L249.39 190.812C242.656 222.441 251.229 254.153 267.734 258.674C270.196 259.345 272.568 258.91 274.988 257.34C287.742 249.059 295.423 212.748 295.5 212.383L295.975 210.089L297.004 212.17C297.063 212.282 302.735 223.719 309.904 235.058C319.27 249.868 326.868 257.789 331.88 257.96C333.698 258.017 335.154 257.042 336.356 254.959C346.582 237.212 334.661 195.813 334.539 195.397L336.083 194.892C336.59 196.621 348.341 237.445 337.736 255.852C336.226 258.469 334.212 259.766 331.827 259.67C320.026 259.261 301.194 223.961 296.585 214.966C294.68 223.177 287.429 251.266 275.834 258.8C273.9 260.055 271.921 260.687 269.928 260.687Z" fill="#373535"/>
<path d="M298.981 266.006L295.795 214.015L297.408 213.905L300.595 265.896L298.981 266.006Z" fill="#373535"/>
<path d="M288.89 255.365C288.89 253.992 289.94 252.88 291.238 252.88C292.532 252.88 293.583 253.992 293.583 255.365C293.583 256.738 292.532 257.85 291.238 257.85C289.94 257.85 288.89 256.738 288.89 255.365Z" fill="#373535"/>
<path d="M174.535 310.638L173.195 309.677L196.716 272.895L198.056 273.855L174.535 310.638Z" fill="#373535"/>
<path d="M37.76 328.343L26.1205 364.078C26.1205 364.078 -11.6609 357.634 3.54187 328.787L3.57636 328.733C3.57636 328.733 13.7699 316.709 37.76 328.343Z" fill="#373535"/>
<path d="M396.585 372.356L415.12 401.389L396.585 372.356Z" fill="white"/>
<path d="M414.45 401.867L395.915 372.835L397.252 371.877L415.79 400.907L414.45 401.867Z" fill="#373535"/>
<path d="M460.741 213.038L394.719 375.511C392.681 380.51 388.009 383.708 382.867 383.624L283.463 381.911L280.292 381.86C275.121 381.776 271.725 376.129 273.827 371.134L343.454 205.577C344.733 202.533 347.609 200.598 350.761 200.652L358.877 200.803H358.893L454.323 202.55C459.382 202.634 462.728 208.127 460.741 213.038Z" fill="#1F2F4F"/>
<path d="M358.877 200.803C350.342 202.274 349.421 207.888 349.421 207.888C349.421 207.888 283.962 364.768 281.036 372.363C279.502 376.384 281.359 379.704 283.461 381.911L280.293 381.86C275.119 381.773 271.726 376.126 273.827 371.131L343.454 205.577C344.733 202.53 347.609 200.598 350.761 200.648L358.877 200.803Z" fill="#373535"/>
<path d="M418.88 221.551C417.463 221.551 416.155 222.424 415.548 223.778L404.914 247.447C404.367 248.663 404.447 250.067 405.126 251.207C405.808 252.347 406.973 253.026 408.246 253.026H431.785C433.21 253.026 434.523 252.144 435.128 250.78L445.606 227.111C446.144 225.898 446.057 224.494 445.378 223.359C444.698 222.228 443.531 221.551 442.263 221.551H418.88ZM431.785 255.593H408.246C406.134 255.593 404.203 254.467 403.078 252.577C401.95 250.69 401.818 248.359 402.722 246.343L413.359 222.674C414.364 220.433 416.532 218.984 418.88 218.984H442.263C444.367 218.984 446.296 220.105 447.423 221.983C448.551 223.862 448.694 226.187 447.8 228.2L437.323 251.869C436.32 254.133 434.147 255.593 431.785 255.593Z" fill="white"/>
<path d="M106.823 357.02C106.823 357.02 196.854 286.493 247.185 274.865C297.518 263.234 354.299 259.078 360.93 274.865C358.876 280.913 330.882 282.317 330.882 282.317C330.882 282.317 369.218 286.703 374.4 301.617C374.4 303.139 372.195 305.531 367.446 305.531C367.446 305.531 371.07 306.368 371.062 309.721C371.049 315.786 359.64 314.868 334.085 315.107C334.085 315.107 354.214 318.339 355.005 323.604C355.796 328.872 313.623 328.035 303.722 329.756C293.82 331.481 272.212 339.503 250.796 364.978C229.379 390.455 178.629 457.214 135.141 472.821C91.6525 488.428 26.0445 483.932 20.4198 412.773C19.2975 371.245 37.9441 329.296 37.9441 329.296L106.823 357.02Z" fill="#C8D0DE"/>
<path d="M38.3672 330.38C35.9422 336.109 20.2035 374.854 21.2303 412.749C23.1724 437.311 32.4108 455.515 48.6828 466.804C73.9968 484.365 109.81 481.01 134.882 472.01C173.144 458.278 217.709 403.943 241.652 374.75C244.851 370.847 247.717 367.351 250.192 364.408C274.137 335.923 297.119 330.038 303.59 328.912C306.923 328.33 313.646 328.047 321.43 327.715C333.672 327.196 352.17 326.41 354.149 323.854C353.698 320.353 341.52 317.166 333.964 315.95L334.078 314.251C337.567 314.217 340.791 314.206 343.759 314.195C361.395 314.136 370.246 314.105 370.257 309.719C370.262 307.088 367.304 306.374 367.275 306.366L359.933 304.675H367.444C371.631 304.675 373.43 302.704 373.581 301.744C368.394 287.625 331.173 283.211 330.796 283.166L330.844 281.461C341.197 280.942 357.951 278.704 360.039 274.871C352.977 260.129 296.933 264.245 247.359 275.699C197.773 287.156 108.204 357.003 107.305 357.708L106.949 357.986L106.538 357.821L38.3672 330.38ZM93.4924 481.083C77.4168 481.083 61.1846 477.522 47.7966 468.236C31.0868 456.641 21.6044 438.004 19.6171 412.844C18.4975 371.541 37.0273 329.353 37.2131 328.931L37.5341 328.215L38.2319 328.496L106.7 356.054C112.962 351.194 198.691 285.193 247.014 274.028C298.857 262.052 354.887 258.371 361.671 274.517L361.801 274.832L361.692 275.152C360.164 279.656 347.01 281.717 338.323 282.596C349.87 284.705 371.249 290.065 375.16 301.32L375.21 301.618C375.21 303.162 373.616 305.302 370.244 306.085C371.151 306.902 371.875 308.09 371.873 309.722C371.859 315.809 363.635 315.837 343.765 315.908C343.258 315.908 342.746 315.91 342.226 315.913C348.235 317.43 355.274 319.948 355.805 323.47C355.858 323.832 355.834 324.382 355.402 324.941C353.136 327.864 339.92 328.642 321.494 329.426C314.086 329.74 307.087 330.038 303.853 330.599C299.34 331.386 275.599 336.76 251.399 365.545C248.929 368.486 246.067 371.976 242.872 375.871C218.829 405.187 174.078 459.753 135.402 473.633C123.166 478.022 108.395 481.083 93.4924 481.083Z" fill="#373535"/>
<path d="M332.363 283.365L308.185 283.073L308.203 281.363L332.382 281.655L332.363 283.365Z" fill="#373535"/>
<path d="M367.935 306.596C356.059 302.724 308.105 296.937 307.625 296.878L307.805 295.179C309.785 295.415 356.393 301.045 368.409 304.962L367.935 306.596Z" fill="#373535"/>
<path d="M336.971 316.5C333.827 315.33 312.888 315.54 305.087 315.72L305.053 314.01C306.207 313.982 333.442 313.372 337.507 314.886L336.971 316.5Z" fill="#373535"/>
<path d="M79.7786 380.643L78.7783 379.3L106.321 356.347L107.321 357.69L79.7786 380.643Z" fill="#373535"/>
<path d="M281.737 113.671C281.36 113.671 281.023 113.393 280.946 112.986C277.118 93.0964 261.605 95.3119 260.949 95.413C260.504 95.4888 260.095 95.1631 260.029 94.6941C259.962 94.228 260.265 93.7927 260.705 93.7225C260.886 93.6945 278.389 91.1279 282.53 112.646C282.618 113.106 282.337 113.559 281.899 113.654C281.843 113.665 281.79 113.671 281.737 113.671Z" fill="#373535"/>
<path d="M281.324 131.532C279.194 131.532 276.758 131.276 274.185 130.526L274.612 128.875C282.118 131.063 288.557 128.727 288.621 128.701L289.159 130.316C288.968 130.386 285.827 131.532 281.324 131.532Z" fill="#373535"/>
<path d="M355.623 62.7175C355.623 62.7175 346.594 68.0696 350.93 69.2153C355.262 70.361 362.471 72.5232 363.447 73.4189C364.424 74.3147 364.877 62.7175 364.877 62.7175C364.877 62.7175 360.439 60.1706 355.623 62.7175Z" fill="#373535"/>
<path d="M321.918 90.6169C321.918 90.6169 330.705 89.7239 335.038 86.9215C339.373 84.1191 341.902 86.7951 342.141 88.7692C342.382 90.7432 339.132 95.3316 332.029 95.2024C324.927 95.076 321.918 90.6169 321.918 90.6169Z" fill="#373535"/>
<path d="M362.005 84.7574C362.005 84.7574 356.468 85.3948 353.94 84.7574C351.411 84.12 349.607 85.1393 350.57 87.0516C351.533 88.961 356.349 92.721 358.874 90.4605C361.403 88.1973 362.005 84.7574 362.005 84.7574Z" fill="#373535"/>
<path d="M351.773 106.888C351.444 106.888 351.136 106.675 351.014 106.329C350.86 105.886 351.075 105.394 351.492 105.231C352.871 104.689 356.578 102.819 357.156 100.68C357.337 100.008 357.18 99.3486 356.676 98.6578C355.843 97.5149 354.912 96.3945 354.012 95.3078C351.317 92.0533 348.77 88.9785 348.947 85.6622C348.971 85.1904 349.356 84.7945 349.799 84.8563C350.245 84.8843 350.584 85.2887 350.56 85.7605C350.42 88.3776 352.755 91.194 355.227 94.179C356.145 95.2825 357.093 96.4282 357.955 97.6104C358.775 98.7336 359.035 99.9551 358.711 101.151C357.801 104.501 352.638 106.605 352.054 106.835C351.961 106.871 351.866 106.888 351.773 106.888Z" fill="#373535"/>
<path d="M348.525 122.776C347.397 122.776 346.336 122.546 345.338 122.086C339.921 119.581 338.628 111.232 338.575 110.879C338.506 110.413 339.329 109.621 340.268 109.901C340.701 110.028 341.122 110.146 341.194 110.612C341.205 110.691 341.385 118.396 345.988 120.519C348.583 121.718 351.852 120.934 355.704 118.191C356.076 117.921 356.577 118.031 356.827 118.421C357.076 118.814 356.978 119.345 356.609 119.609C353.645 121.718 350.942 122.776 348.525 122.776Z" fill="#373535"/>
</g>
</g>
<defs>
<clipPath id="clip0_222_1711">
<rect width="657.576" height="500" fill="white"/>
</clipPath>
</defs>
</svg>
