<svg width="97" height="98" viewBox="0 0 97 98" fill="none" xmlns="http://www.w3.org/2000/svg">
<path opacity="0.1" fill-rule="evenodd" clip-rule="evenodd" d="M48.5 97.5C75.2858 97.5 97 75.7858 97 49C97 22.2142 75.2858 0.5 48.5 0.5C21.7142 0.5 0 22.2142 0 49C0 75.7858 21.7142 97.5 48.5 97.5Z" fill="#222831"/>
<path fill-rule="evenodd" clip-rule="evenodd" d="M63.3208 31.8847C63.4994 32.3978 63.5215 32.8881 63.3877 33.3557C63.0311 34.493 62.5294 35.3185 61.8825 35.8309C60.1659 37.2364 58.1363 38.2726 55.7949 38.9416C55.3935 39.0754 54.7915 39.3095 53.9887 39.644C53.2529 39.9116 52.5953 40.034 52.0153 40.0119C51.5022 39.9678 51.2794 40.313 51.3463 41.0488L51.6473 45.1302C51.826 47.4716 52.1491 50.9616 52.6173 55.5988C52.9739 59.7243 53.186 63.225 53.2529 66.1016C53.3418 69.8705 53.5204 72.6575 53.788 74.4637C53.8322 74.8878 53.8436 75.2002 53.8215 75.4002C53.7767 75.7126 53.7994 76.2143 53.8884 76.9054C53.9105 77.5068 53.7432 77.864 53.3867 77.9757C52.2046 78.355 51.458 78.5778 51.1456 78.6447C50.2539 78.7564 49.4618 78.6005 48.7708 78.1764C47.9901 77.6633 47.5446 76.9723 47.4329 76.1026C47.2322 73.7392 47.1097 70.9068 47.0649 67.6068C47.0649 63.8606 47.0649 61.0402 47.0649 59.145C47.1318 58.6988 47.1539 58.3643 47.1318 58.1416C47.1098 57.7623 46.8863 57.5395 46.4629 57.4726C46.0167 57.383 45.7384 57.5395 45.6267 57.9402L45.4929 58.9437C45.2701 60.9506 45.0694 63.2364 44.8908 65.8006L44.1884 74.4971C44.1436 74.9433 44.0432 75.5568 43.8873 76.3368C43.6418 77.4519 42.9729 78.1985 41.8804 78.5785C40.8549 78.9571 39.8849 78.7899 38.9704 78.0767C38.7029 77.8761 38.5242 77.5971 38.4353 77.2405C38.3684 77.1288 38.3122 76.8057 38.268 76.2705C38.1791 75.3561 38.1791 74.3305 38.268 73.1933C38.2901 72.6575 38.3797 71.6319 38.5356 70.1154C38.848 66.7485 39.3718 61.6864 40.1077 54.9299L40.3418 53.4923L40.0073 53.4588C39.3384 55.6443 38.8139 57.2833 38.4353 58.3757C38.0339 59.4012 37.3536 60.0481 36.3949 60.3157C35.4356 60.5385 34.5218 60.2936 33.6522 59.5792C33.0274 59.0219 32.7711 58.4199 32.8829 57.773C32.9718 56.6364 33.1056 55.7881 33.2842 55.2309C33.6856 54.0047 34.2435 51.9757 34.9567 49.1433C35.6035 46.5116 36.1829 44.4826 36.696 43.0551C37.7215 40.1564 38.6808 37.6144 39.5725 35.4295L40.1746 34.2588C41.0222 32.9651 42.126 32.3188 43.486 32.3188C45.4929 32.2519 47.0094 32.2078 48.0349 32.185C49.7963 32.185 51.3129 32.2633 52.5839 32.4198C53.4756 32.5536 54.2784 32.464 54.9922 32.1523C55.5053 31.8853 55.817 31.6171 55.9287 31.3495C56.0625 31.0598 55.9956 30.6364 55.728 30.0791C55.5942 29.7005 55.4718 29.4215 55.3601 29.2429C55.1815 28.9526 54.9366 28.7633 54.6242 28.6736L54.3232 28.9084C53.8549 29.756 53.3532 30.2129 52.818 30.2798C52.2829 30.3915 51.6587 30.1126 50.9449 29.4436C50.6773 29.1988 50.5877 28.9198 50.6773 28.6074C50.9677 27.626 51.1235 27.0909 51.1456 27.0019L53.0522 20.9812C53.1411 20.5798 53.2415 20.2902 53.3532 20.1115C53.5318 19.8212 53.8436 19.6881 54.2898 19.7102C54.8029 19.7322 55.2705 19.866 55.6946 20.1115C56.096 20.3571 56.3194 20.6467 56.3636 20.9812C56.3863 21.5833 56.6091 22.1184 57.0325 22.5867C57.3001 22.8543 57.7015 23.2115 58.2367 23.6571C60.0649 25.7536 61.548 28.0502 62.6853 30.5481C62.8191 30.8585 63.0305 31.3047 63.3208 31.8847ZM53.8543 21.6161C53.6756 22.1291 53.4081 23.0991 53.0515 24.5267C52.717 25.775 52.4046 26.745 52.115 27.4367C52.0922 27.5036 52.0815 27.7271 52.0815 28.1057C51.9477 28.5519 52.1263 28.8523 52.6167 29.0088C53.0401 29.0984 53.3077 28.9198 53.4194 28.4736L55.2591 22.085C55.415 21.416 55.237 21.0147 54.7239 20.8809C54.4784 20.7912 54.2777 20.8367 54.1218 21.0147C54.0556 21.125 53.966 21.3257 53.8543 21.6161ZM50.5436 23.1212C50.967 24.9723 50.8111 26.7229 50.0753 28.3733C49.5401 29.6436 48.5032 30.5026 46.9646 30.9488C45.4708 31.3729 44.1215 31.2277 42.9173 30.514C40.6649 29.154 39.5839 27.3812 39.6729 25.1964C39.606 23.7467 40.0187 22.4088 40.9104 21.1826C41.7801 19.9557 42.8391 19.2198 44.088 18.9743C44.846 18.7515 45.4146 18.6177 45.7939 18.5729C46.4849 18.506 47.0429 18.6733 47.4663 19.0747C48.5139 20.0112 49.1387 20.6019 49.3394 20.8474C49.9636 21.5599 50.3649 22.3178 50.5436 23.1212ZM57.4673 24.3588C57.0211 23.9568 56.5308 23.6671 55.9956 23.4885C55.4156 24.6478 55.1146 25.5957 55.0925 26.3316C55.0704 27.313 55.4718 28.1712 56.2967 28.9078C56.3856 28.9967 56.5529 29.2643 56.7984 29.7105C57.088 30.3795 57.1329 31.0143 56.9322 31.6171C56.7094 32.1964 56.2632 32.6647 55.5942 33.0219C54.4791 33.5798 53.2749 33.7136 51.9818 33.424C51.7142 33.3564 50.8446 33.3009 49.3729 33.2567C48.726 33.2126 47.8008 33.2346 46.5967 33.3236C45.3477 33.4353 44.4225 33.4688 43.8204 33.424C43.0398 33.4019 42.4042 33.5578 41.9139 33.8922C41.4456 34.204 41.0329 34.7284 40.6763 35.4643C39.8956 36.9809 39.1042 38.9322 38.3015 41.3178C37.8332 42.6557 37.1642 44.6405 36.2946 47.2715C35.916 48.3191 35.7146 49.1112 35.6925 49.6464C35.6035 50.8947 35.2242 52.3891 34.5553 54.1284C34.1539 55.3547 33.998 56.5253 34.087 57.6405C34.1987 58.3764 34.7225 58.7992 35.6591 58.9109C36.1722 58.9557 36.5173 58.9664 36.696 58.9443C37.0525 58.8333 37.3208 58.5657 37.4987 58.1422C37.7442 57.4512 38.2118 55.9681 38.9035 53.6936C39.0822 53.0915 39.4942 51.9991 40.1411 50.4157C40.6984 49.0557 41.0663 47.9412 41.2449 47.0709C41.3118 46.8702 41.4677 46.826 41.7132 46.9377C41.9139 46.9819 42.0142 47.0602 42.0142 47.1719L41.9139 48.1084C41.3118 52.5457 40.7653 56.916 40.2749 61.2201C40.0963 63.0043 39.7618 67.0067 39.2715 73.2281C39.2046 74.0088 39.2494 74.9446 39.4053 76.0377C39.4722 76.5508 39.628 76.896 39.8735 77.0746C40.1191 77.2305 40.5204 77.286 41.0777 77.2419C41.7687 77.1522 42.2256 76.9964 42.4491 76.7736C42.7167 76.506 42.906 75.9815 43.0177 75.2015C43.2405 73.6402 43.4411 71.6333 43.6198 69.1808C43.8873 65.7464 44.0432 63.7395 44.088 63.1602C44.1997 61.8664 44.2774 60.8743 44.3222 60.1833C44.4339 59.0239 44.6011 58.0533 44.8239 57.2726C45.1363 56.314 45.8273 55.9688 46.8977 56.2357C47.6556 56.3916 48.0015 56.9495 47.9346 57.9081C47.7339 62.5467 47.8677 68.1319 48.336 74.6657C48.3587 75.2236 48.4142 75.6471 48.5032 75.9367C48.6591 76.3829 48.916 76.7288 49.2725 76.9736C49.5843 77.1743 50.0532 77.2967 50.6773 77.3415C51.4353 77.3636 51.9263 77.4198 52.1491 77.5088C52.2608 77.5309 52.3718 77.4646 52.4836 77.3081C52.5953 77.1516 52.6508 76.9957 52.6508 76.8398C52.6949 76.1709 52.7177 75.6812 52.7177 75.3688C52.8067 73.6067 52.7732 71.3102 52.6173 68.4778C52.4167 64.8433 52.2942 62.5467 52.2494 61.5874C52.2053 58.3985 52.0822 56.1688 51.8815 54.8978C51.6808 53.5819 51.4687 51.6426 51.246 49.0778C51.0232 46.4246 50.8225 44.4733 50.6439 43.2243C50.4432 41.7305 50.4653 40.1143 50.7108 38.3743C51.6694 38.8426 52.6173 38.9102 53.5539 38.5757L57.0994 37.405C58.3704 37.0478 59.7532 36.2343 61.247 34.9633C62.3173 34.0715 62.5849 33.034 62.0498 31.8526C61.0022 29.3553 59.8087 27.2594 58.4708 25.565C58.0467 24.983 57.7122 24.5816 57.4673 24.3588ZM48.7708 24.4592C48.146 23.5895 47.6777 22.954 47.366 22.5526C46.8529 21.794 46.2066 21.4154 45.426 21.4154C45.4701 20.9471 45.7049 20.6795 46.1284 20.6126L47.0649 20.3785L48.5701 22.3854C49.1053 23.1433 49.1715 23.8343 48.7708 24.4592ZM49.7401 23.5895C49.3836 21.9612 48.4691 20.8695 46.9974 20.3116C46.7967 19.866 46.4287 19.6767 45.8936 19.7429C45.0908 19.8767 44.6446 19.9323 44.5556 19.9102C44.0653 19.7543 43.4632 19.9878 42.7494 20.6126C41.835 21.3257 41.2215 22.2736 40.9098 23.4557C40.5974 24.6378 40.6643 25.7636 41.1105 26.834C41.8015 28.596 43.0284 29.5995 44.7898 29.8443C46.7298 30.1119 48.1567 29.4657 49.0712 27.905C49.8298 26.5664 50.0525 25.1281 49.7401 23.5895ZM48.6698 44.3274C48.3132 44.2833 48.1125 44.0826 48.0677 43.7254C48.0236 43.3688 48.2236 43.1902 48.6698 43.1902C49.0712 43.2578 49.2718 43.4578 49.2718 43.7923C49.2277 44.1709 49.027 44.3495 48.6698 44.3274ZM49.607 47.4716L50.2091 53.2247C49.8518 53.1805 49.5956 53.0574 49.4398 52.8567C49.3501 52.7671 49.2839 52.5892 49.2391 52.3216L48.6035 47.7057C48.5587 47.3271 48.6925 47.0809 49.0049 46.9698C49.3615 46.9023 49.5622 47.0695 49.607 47.4716ZM43.6198 22.285C43.3074 22.2181 43.1515 22.0623 43.1515 21.8167C43.1515 21.3933 43.3635 21.2374 43.787 21.3491C44.0767 21.3933 44.1884 21.5605 44.1215 21.8509C44.0987 22.073 43.9315 22.2181 43.6198 22.285ZM39.3043 45.0298C39.7505 45.074 39.9619 45.2533 39.9398 45.565C39.8508 45.8995 39.5605 46.1009 39.0701 46.1671C38.7577 46.1002 38.6018 45.9443 38.6018 45.6988C38.6025 45.2526 38.8367 45.0298 39.3043 45.0298ZM38.2346 48.073C38.2567 48.073 38.4018 48.073 38.6694 48.073C39.0929 48.073 39.3049 48.1961 39.3049 48.4416C39.3277 48.8429 39.1156 49.0657 38.6694 49.1105C38.2011 48.9988 37.967 48.7647 37.967 48.4075C37.9891 48.2295 38.078 48.1185 38.2346 48.073ZM37.2646 52.4888C36.9301 52.4888 36.7408 52.355 36.696 52.0868C36.6291 51.5516 36.8632 51.2619 37.3984 51.2171C37.666 51.1502 37.7998 51.3067 37.7998 51.6854C37.8439 52.1543 37.666 52.4212 37.2646 52.4888ZM41.9473 69.6471C41.568 69.6919 41.3787 69.514 41.3787 69.1119C41.3787 68.8223 41.5239 68.655 41.8135 68.6102C42.0811 68.5212 42.2932 68.6323 42.4491 68.9447C42.4042 69.4136 42.237 69.6471 41.9473 69.6471ZM41.3453 72.8588C41.6349 72.8588 41.8022 73.014 41.847 73.3264C41.8691 73.6609 41.6911 73.8623 41.3118 73.9285C40.8884 73.9285 40.6763 73.7499 40.6763 73.3933C40.6984 73.0374 40.9212 72.8588 41.3453 72.8588Z" fill="#222831" stroke="#222831" stroke-width="0.5"/>
</svg>
