<svg width="97" height="98" viewBox="0 0 97 98" fill="none" xmlns="http://www.w3.org/2000/svg">
<path opacity="0.1" fill-rule="evenodd" clip-rule="evenodd" d="M48.5 97.5C75.2858 97.5 97 75.7858 97 49C97 22.2142 75.2858 0.5 48.5 0.5C21.7142 0.5 0 22.2142 0 49C0 75.7858 21.7142 97.5 48.5 97.5Z" fill="#222831"/>
<mask id="path-2-inside-1_149_2040" fill="white">
<path d="M28.6637 45.8402V45.8842C28.517 50.9625 28.4093 57.3617 28.3359 64.4165V65.7815C28.3507 66.431 28.5183 67.068 28.8252 67.6406C29.1396 68.2223 29.5898 68.7194 30.1375 69.0899C30.6851 69.4604 31.3141 69.6933 31.971 69.7688C32.1324 69.7688 32.3134 69.7688 32.4602 69.7982H33.4974H34.8917H37.7097L49.1726 69.8618L60.6647 69.8373H63.4779H64.8722H65.9143C66.0806 69.8373 66.2469 69.8373 66.4035 69.803C67.3884 69.6801 68.2953 69.2044 68.9565 68.4641C69.6176 67.7238 69.9881 66.7691 69.9994 65.7766V64.4263C69.926 57.3764 69.8184 50.987 69.6765 45.9234V45.8744C69.6718 45.7398 69.6363 45.6081 69.5727 45.4893C69.509 45.3706 69.419 45.268 69.3096 45.1895C66.3448 43.0613 64.4172 41.7306 62.8467 40.6543C62.8467 40.2874 62.8467 39.9155 62.8761 39.5339V39.3285C62.8761 39.2649 62.8761 39.1425 62.8761 39.0496C62.8745 38.8412 62.8548 38.6333 62.8174 38.4283C62.7364 38.0237 62.5893 37.6352 62.382 37.2785C61.9594 36.5467 61.3079 35.9742 60.5278 35.6494C60.1298 35.4823 59.7062 35.3847 59.2753 35.3607C59.0258 35.3607 58.9328 35.3607 58.7861 35.3607H58.5708C58.654 34.5926 58.7274 33.6973 58.7959 32.6944L58.8546 31.7159C58.8546 31.3392 58.8546 30.9429 58.8546 30.5369C58.8233 30.1222 58.7628 29.7102 58.6735 29.304C58.5867 28.8764 58.4673 28.456 58.3164 28.0466C57.6549 26.2528 56.4768 24.6951 54.9309 23.5701C54.1093 22.975 53.202 22.5081 52.2401 22.1856C51.2486 21.8635 50.2148 21.6904 49.1726 21.6719C48.1397 21.6846 47.1143 21.8494 46.1295 22.1611C45.1671 22.4848 44.2598 22.9533 43.4387 23.5505C41.8957 24.6763 40.721 26.234 40.063 28.0271L39.877 28.6435C39.8134 28.849 39.7792 29.0643 39.7303 29.2746C39.6412 29.6808 39.5807 30.0928 39.5493 30.5075C39.515 30.9087 39.5493 31.3098 39.5493 31.6817L39.6129 32.6601C39.6814 33.6386 39.7547 34.5535 39.8379 35.3265H39.5982C39.4416 35.3265 39.3389 35.3265 39.1089 35.3265C38.6794 35.3527 38.2575 35.452 37.8614 35.62C37.058 35.9476 36.389 36.5373 35.9631 37.2932C35.7594 37.6459 35.614 38.0292 35.5326 38.4283C35.471 38.7835 35.4513 39.1447 35.4739 39.5046C35.4739 39.7003 35.4739 39.8911 35.4739 40.0868C33.9181 41.2707 32.0492 42.7433 28.9866 45.1895C28.8894 45.2686 28.8102 45.3675 28.7545 45.4798C28.6988 45.5921 28.6679 45.715 28.6637 45.8402ZM67.519 65.6983C67.5086 65.9482 67.4417 66.1924 67.3233 66.4126C67.1999 66.6326 67.026 66.8201 66.8159 66.9596C66.6058 67.0991 66.3655 67.1867 66.1148 67.215C66.0512 67.215 65.9876 67.215 65.924 67.215H64.8918H63.4974H60.6843L49.1726 67.1709L37.6804 67.2003H32.2303C31.9789 67.1741 31.7374 67.0886 31.5256 66.9508C31.3138 66.813 31.1378 66.6269 31.0121 66.4077C30.8896 66.1886 30.8193 65.9442 30.8066 65.6935V64.397C30.743 58.0369 30.6451 52.2443 30.5228 47.4498C33.3017 49.6318 37.9495 52.8999 43.1109 56.3735C40.2146 57.8412 35.8849 61.0897 34.6667 62.8803C34.7428 63.1108 34.8642 63.3237 35.0238 63.5066C35.2244 63.7805 35.4054 63.9958 35.4494 63.9713C37.7048 63.3794 42.7587 59.8471 44.8477 57.5574C46.0317 58.3451 47.2303 59.1377 48.4387 59.9302C48.6571 60.0723 48.912 60.148 49.1726 60.148C49.4331 60.148 49.688 60.0723 49.9064 59.9302C51.1099 59.1426 52.3086 58.3451 53.4925 57.5574C55.5816 59.8471 60.6354 63.3794 62.8712 63.9958C62.9152 63.9958 63.1354 63.761 63.3604 63.4527C63.5056 63.2902 63.6141 63.0983 63.6784 62.8901C62.4602 61.1093 58.1207 57.851 55.2293 56.3931C60.3908 52.9195 65.0141 49.6465 67.8125 47.4596C67.6902 52.2492 67.5972 58.0467 67.5336 64.3921L67.519 65.6983ZM67.4505 46.0163C66.1197 46.7159 64.4221 47.6846 62.4798 48.8392C62.6119 47.0682 62.7195 44.8519 62.8027 42.3373C64.0013 43.3206 65.4544 44.4606 67.4505 46.0163ZM41.5209 31.6963C41.56 31.3881 41.5796 31.0848 41.6334 30.7717C41.69 30.4556 41.7668 30.1435 41.8633 29.8372C41.9172 29.6807 41.9514 29.5192 42.015 29.348L42.2107 28.8832C42.7984 27.5786 43.7345 26.4613 44.9162 25.6543C45.5333 25.2347 46.2071 24.9053 46.9172 24.6758C47.6513 24.4695 48.41 24.3641 49.1726 24.3627C49.9263 24.3749 50.6751 24.4885 51.3986 24.7003C52.1085 24.9301 52.7822 25.2595 53.3996 25.6787C54.5787 26.4851 55.5131 27.6005 56.1002 28.9028C56.2383 29.2055 56.3544 29.5178 56.4475 29.8372C56.5442 30.1434 56.621 30.4556 56.6775 30.7717C56.7362 31.0848 56.7508 31.3881 56.79 31.6915L56.8487 32.6699C56.9123 33.6484 56.9857 34.5486 57.0688 35.3167H56.5454L53.7029 35.2922C53.8399 34.3578 53.9475 33.2179 54.0258 31.941C54.0462 31.6592 54.0462 31.3763 54.0258 31.0946C53.9985 30.7732 53.9395 30.4553 53.8497 30.1455C53.6601 29.4984 53.3368 28.8984 52.9005 28.3842C52.4413 27.8429 51.8697 27.4081 51.2255 27.1099C50.5813 26.8116 49.88 26.6571 49.1701 26.6571C48.4602 26.6571 47.7589 26.8116 47.1147 27.1099C46.4705 27.4081 45.8989 27.8429 45.4397 28.3842C44.9932 28.8959 44.6597 29.4961 44.4612 30.1455C44.3799 30.4545 44.3291 30.7708 44.3095 31.0897C44.2892 31.3715 44.2892 31.6543 44.3095 31.9361C44.3878 33.213 44.4954 34.3823 44.6275 35.2922L41.7949 35.3167H41.2567C41.3399 34.5535 41.4132 33.6631 41.4817 32.6748L41.5209 31.6963ZM51.9857 35.2873H49.1726H46.3545C46.4866 34.3578 46.5943 33.213 46.6726 31.941C46.6768 31.7556 46.6948 31.5708 46.7264 31.3881C46.7587 31.2312 46.8045 31.0773 46.8634 30.9282C46.9854 30.6245 47.1648 30.3471 47.3917 30.1112C47.6204 29.8684 47.8964 29.6749 48.2026 29.5426C48.5089 29.4103 48.839 29.3421 49.1726 29.3421C49.5061 29.3421 49.8362 29.4103 50.1425 29.5426C50.4487 29.6749 50.7247 29.8684 50.9534 30.1112C51.182 30.3468 51.363 30.6242 51.4866 30.9282C51.5453 31.0774 51.5912 31.2312 51.6236 31.3881C51.6583 31.5706 51.6795 31.7554 51.6872 31.941C51.7655 33.2179 51.8731 34.3529 52.0052 35.2873H51.9857ZM37.8565 38.9175C37.9153 38.6956 38.0264 38.4909 38.1804 38.3207C38.3345 38.1505 38.527 38.0196 38.742 37.939C38.8845 37.8857 39.0351 37.8575 39.1872 37.8558C39.2313 37.8558 39.4221 37.8558 39.559 37.8558H39.9994L41.79 37.8803C44.197 37.9097 46.6823 37.9243 49.1677 37.9243C51.653 37.9243 54.1383 37.939 56.5454 37.939H58.336H58.7763C58.9084 37.939 59.109 37.939 59.153 37.939C59.3049 37.9386 59.4556 37.9651 59.5982 38.0173C59.884 38.1232 60.1278 38.3189 60.2929 38.575C60.3768 38.6993 60.4396 38.8364 60.4788 38.9811C60.4984 39.0532 60.5115 39.1269 60.518 39.2013C60.518 39.2453 60.518 39.26 60.518 39.3333V39.5388C60.6256 43.7071 60.787 47.2932 61.0072 49.7639C57.4896 51.8578 53.3311 54.485 49.1726 57.1954C45.0091 54.4752 40.8555 51.8431 37.3134 49.6807C37.5287 47.2345 37.6902 43.6337 37.8027 39.485C37.7955 39.2943 37.8136 39.1035 37.8565 38.9175ZM35.8995 48.8099C33.9426 47.6357 32.2107 46.6523 30.8751 45.9478C32.9299 44.167 34.378 42.8852 35.5571 41.8187C35.6207 44.5633 35.7381 46.9508 35.8751 48.8343L35.8995 48.8099Z"/>
</mask>
<path d="M28.6637 45.8402V45.8842C28.517 50.9625 28.4093 57.3617 28.3359 64.4165V65.7815C28.3507 66.431 28.5183 67.068 28.8252 67.6406C29.1396 68.2223 29.5898 68.7194 30.1375 69.0899C30.6851 69.4604 31.3141 69.6933 31.971 69.7688C32.1324 69.7688 32.3134 69.7688 32.4602 69.7982H33.4974H34.8917H37.7097L49.1726 69.8618L60.6647 69.8373H63.4779H64.8722H65.9143C66.0806 69.8373 66.2469 69.8373 66.4035 69.803C67.3884 69.6801 68.2953 69.2044 68.9565 68.4641C69.6176 67.7238 69.9881 66.7691 69.9994 65.7766V64.4263C69.926 57.3764 69.8184 50.987 69.6765 45.9234V45.8744C69.6718 45.7398 69.6363 45.6081 69.5727 45.4893C69.509 45.3706 69.419 45.268 69.3096 45.1895C66.3448 43.0613 64.4172 41.7306 62.8467 40.6543C62.8467 40.2874 62.8467 39.9155 62.8761 39.5339V39.3285C62.8761 39.2649 62.8761 39.1425 62.8761 39.0496C62.8745 38.8412 62.8548 38.6333 62.8174 38.4283C62.7364 38.0237 62.5893 37.6352 62.382 37.2785C61.9594 36.5467 61.3079 35.9742 60.5278 35.6494C60.1298 35.4823 59.7062 35.3847 59.2753 35.3607C59.0258 35.3607 58.9328 35.3607 58.7861 35.3607H58.5708C58.654 34.5926 58.7274 33.6973 58.7959 32.6944L58.8546 31.7159C58.8546 31.3392 58.8546 30.9429 58.8546 30.5369C58.8233 30.1222 58.7628 29.7102 58.6735 29.304C58.5867 28.8764 58.4673 28.456 58.3164 28.0466C57.6549 26.2528 56.4768 24.6951 54.9309 23.5701C54.1093 22.975 53.202 22.5081 52.2401 22.1856C51.2486 21.8635 50.2148 21.6904 49.1726 21.6719C48.1397 21.6846 47.1143 21.8494 46.1295 22.1611C45.1671 22.4848 44.2598 22.9533 43.4387 23.5505C41.8957 24.6763 40.721 26.234 40.063 28.0271L39.877 28.6435C39.8134 28.849 39.7792 29.0643 39.7303 29.2746C39.6412 29.6808 39.5807 30.0928 39.5493 30.5075C39.515 30.9087 39.5493 31.3098 39.5493 31.6817L39.6129 32.6601C39.6814 33.6386 39.7547 34.5535 39.8379 35.3265H39.5982C39.4416 35.3265 39.3389 35.3265 39.1089 35.3265C38.6794 35.3527 38.2575 35.452 37.8614 35.62C37.058 35.9476 36.389 36.5373 35.9631 37.2932C35.7594 37.6459 35.614 38.0292 35.5326 38.4283C35.471 38.7835 35.4513 39.1447 35.4739 39.5046C35.4739 39.7003 35.4739 39.8911 35.4739 40.0868C33.9181 41.2707 32.0492 42.7433 28.9866 45.1895C28.8894 45.2686 28.8102 45.3675 28.7545 45.4798C28.6988 45.5921 28.6679 45.715 28.6637 45.8402ZM67.519 65.6983C67.5086 65.9482 67.4417 66.1924 67.3233 66.4126C67.1999 66.6326 67.026 66.8201 66.8159 66.9596C66.6058 67.0991 66.3655 67.1867 66.1148 67.215C66.0512 67.215 65.9876 67.215 65.924 67.215H64.8918H63.4974H60.6843L49.1726 67.1709L37.6804 67.2003H32.2303C31.9789 67.1741 31.7374 67.0886 31.5256 66.9508C31.3138 66.813 31.1378 66.6269 31.0121 66.4077C30.8896 66.1886 30.8193 65.9442 30.8066 65.6935V64.397C30.743 58.0369 30.6451 52.2443 30.5228 47.4498C33.3017 49.6318 37.9495 52.8999 43.1109 56.3735C40.2146 57.8412 35.8849 61.0897 34.6667 62.8803C34.7428 63.1108 34.8642 63.3237 35.0238 63.5066C35.2244 63.7805 35.4054 63.9958 35.4494 63.9713C37.7048 63.3794 42.7587 59.8471 44.8477 57.5574C46.0317 58.3451 47.2303 59.1377 48.4387 59.9302C48.6571 60.0723 48.912 60.148 49.1726 60.148C49.4331 60.148 49.688 60.0723 49.9064 59.9302C51.1099 59.1426 52.3086 58.3451 53.4925 57.5574C55.5816 59.8471 60.6354 63.3794 62.8712 63.9958C62.9152 63.9958 63.1354 63.761 63.3604 63.4527C63.5056 63.2902 63.6141 63.0983 63.6784 62.8901C62.4602 61.1093 58.1207 57.851 55.2293 56.3931C60.3908 52.9195 65.0141 49.6465 67.8125 47.4596C67.6902 52.2492 67.5972 58.0467 67.5336 64.3921L67.519 65.6983ZM67.4505 46.0163C66.1197 46.7159 64.4221 47.6846 62.4798 48.8392C62.6119 47.0682 62.7195 44.8519 62.8027 42.3373C64.0013 43.3206 65.4544 44.4606 67.4505 46.0163ZM41.5209 31.6963C41.56 31.3881 41.5796 31.0848 41.6334 30.7717C41.69 30.4556 41.7668 30.1435 41.8633 29.8372C41.9172 29.6807 41.9514 29.5192 42.015 29.348L42.2107 28.8832C42.7984 27.5786 43.7345 26.4613 44.9162 25.6543C45.5333 25.2347 46.2071 24.9053 46.9172 24.6758C47.6513 24.4695 48.41 24.3641 49.1726 24.3627C49.9263 24.3749 50.6751 24.4885 51.3986 24.7003C52.1085 24.9301 52.7822 25.2595 53.3996 25.6787C54.5787 26.4851 55.5131 27.6005 56.1002 28.9028C56.2383 29.2055 56.3544 29.5178 56.4475 29.8372C56.5442 30.1434 56.621 30.4556 56.6775 30.7717C56.7362 31.0848 56.7508 31.3881 56.79 31.6915L56.8487 32.6699C56.9123 33.6484 56.9857 34.5486 57.0688 35.3167H56.5454L53.7029 35.2922C53.8399 34.3578 53.9475 33.2179 54.0258 31.941C54.0462 31.6592 54.0462 31.3763 54.0258 31.0946C53.9985 30.7732 53.9395 30.4553 53.8497 30.1455C53.6601 29.4984 53.3368 28.8984 52.9005 28.3842C52.4413 27.8429 51.8697 27.4081 51.2255 27.1099C50.5813 26.8116 49.88 26.6571 49.1701 26.6571C48.4602 26.6571 47.7589 26.8116 47.1147 27.1099C46.4705 27.4081 45.8989 27.8429 45.4397 28.3842C44.9932 28.8959 44.6597 29.4961 44.4612 30.1455C44.3799 30.4545 44.3291 30.7708 44.3095 31.0897C44.2892 31.3715 44.2892 31.6543 44.3095 31.9361C44.3878 33.213 44.4954 34.3823 44.6275 35.2922L41.7949 35.3167H41.2567C41.3399 34.5535 41.4132 33.6631 41.4817 32.6748L41.5209 31.6963ZM51.9857 35.2873H49.1726H46.3545C46.4866 34.3578 46.5943 33.213 46.6726 31.941C46.6768 31.7556 46.6948 31.5708 46.7264 31.3881C46.7587 31.2312 46.8045 31.0773 46.8634 30.9282C46.9854 30.6245 47.1648 30.3471 47.3917 30.1112C47.6204 29.8684 47.8964 29.6749 48.2026 29.5426C48.5089 29.4103 48.839 29.3421 49.1726 29.3421C49.5061 29.3421 49.8362 29.4103 50.1425 29.5426C50.4487 29.6749 50.7247 29.8684 50.9534 30.1112C51.182 30.3468 51.363 30.6242 51.4866 30.9282C51.5453 31.0774 51.5912 31.2312 51.6236 31.3881C51.6583 31.5706 51.6795 31.7554 51.6872 31.941C51.7655 33.2179 51.8731 34.3529 52.0052 35.2873H51.9857ZM37.8565 38.9175C37.9153 38.6956 38.0264 38.4909 38.1804 38.3207C38.3345 38.1505 38.527 38.0196 38.742 37.939C38.8845 37.8857 39.0351 37.8575 39.1872 37.8558C39.2313 37.8558 39.4221 37.8558 39.559 37.8558H39.9994L41.79 37.8803C44.197 37.9097 46.6823 37.9243 49.1677 37.9243C51.653 37.9243 54.1383 37.939 56.5454 37.939H58.336H58.7763C58.9084 37.939 59.109 37.939 59.153 37.939C59.3049 37.9386 59.4556 37.9651 59.5982 38.0173C59.884 38.1232 60.1278 38.3189 60.2929 38.575C60.3768 38.6993 60.4396 38.8364 60.4788 38.9811C60.4984 39.0532 60.5115 39.1269 60.518 39.2013C60.518 39.2453 60.518 39.26 60.518 39.3333V39.5388C60.6256 43.7071 60.787 47.2932 61.0072 49.7639C57.4896 51.8578 53.3311 54.485 49.1726 57.1954C45.0091 54.4752 40.8555 51.8431 37.3134 49.6807C37.5287 47.2345 37.6902 43.6337 37.8027 39.485C37.7955 39.2943 37.8136 39.1035 37.8565 38.9175ZM35.8995 48.8099C33.9426 47.6357 32.2107 46.6523 30.8751 45.9478C32.9299 44.167 34.378 42.8852 35.5571 41.8187C35.6207 44.5633 35.7381 46.9508 35.8751 48.8343L35.8995 48.8099Z" fill="#222831" stroke="#222831" stroke-width="1.2" mask="url(#path-2-inside-1_149_2040)"/>
<path d="M48.8219 48.9996L48.8219 48.9997L48.8248 48.9999C49.0717 49.0198 49.3201 48.9897 49.5551 48.9114C49.7894 48.8333 50.0056 48.7088 50.1909 48.5454C50.38 48.3824 50.5319 48.1806 50.6361 47.9537C50.7406 47.7262 50.7947 47.4787 50.7947 47.2283C50.7947 46.9778 50.7406 46.7304 50.6361 46.5028C50.5317 46.2754 50.3794 46.0733 50.1897 45.9101C50.0025 45.748 49.7846 45.6251 49.549 45.5489C49.3131 45.4726 49.0643 45.4447 48.8174 45.4666L48.8171 45.4666C48.3434 45.5093 47.8978 45.71 47.552 46.0365L47.5519 46.0365L47.5483 46.04C47.2898 46.2924 47.084 46.593 46.9422 46.9242C46.9113 46.9308 46.8801 46.9362 46.8488 46.9405C46.7117 46.9254 46.5731 46.9229 46.435 46.9332C46.3755 46.9334 46.3173 46.9351 46.2612 46.9382C46.212 46.934 46.1675 46.9287 46.1289 46.9225C46.0668 46.3671 46.1828 45.8049 46.4623 45.3179L46.4623 45.3179L46.464 45.3149C46.6734 44.9401 46.9555 44.6109 47.2936 44.3465C47.6318 44.0821 48.0194 43.8878 48.4336 43.7751L48.4339 43.775C48.9369 43.6374 49.4643 43.6145 49.9773 43.7081C50.4902 43.8016 50.9755 44.0091 51.3975 44.3153C51.8585 44.6506 52.2337 45.0901 52.4924 45.5981C52.751 46.1061 52.8859 46.668 52.8859 47.238C52.8859 47.8081 52.751 48.37 52.4924 48.878C52.2337 49.3859 51.8585 49.8255 51.3975 50.1608L51.3972 50.161C50.975 50.469 50.489 50.6782 49.9752 50.7734C49.4613 50.8685 48.9327 50.8471 48.4282 50.7107L48.4276 50.7105C48.011 50.5988 47.621 50.4051 47.2804 50.1406C46.9397 49.8761 46.6554 49.5462 46.4441 49.1703L46.4441 49.1703L46.4431 49.1685C46.1636 48.6791 46.0464 48.115 46.1063 47.5571C46.1485 47.55 46.1993 47.5439 46.2573 47.5397C46.3487 47.5461 46.4463 47.5489 46.5453 47.5479C46.645 47.5548 46.7449 47.5537 46.844 47.5447C46.8796 47.55 46.9151 47.5564 46.9503 47.564C47.0949 47.8891 47.3023 48.1832 47.561 48.4291L47.561 48.4291C47.905 48.7559 48.3494 48.957 48.8219 48.9996Z" fill="#222831" stroke="#222831" stroke-width="0.6"/>
</svg>
