<svg width="42" height="43" viewBox="0 0 42 43" fill="none" xmlns="http://www.w3.org/2000/svg">
<rect y="0.398438" width="42" height="42" rx="21" fill="#222831"/>
<path d="M15.75 14.7246C15.75 15.7626 14.925 16.5782 13.875 16.5782C12.825 16.5782 12 15.7626 12 14.7246C12 13.6867 12.825 12.8711 13.875 12.8711C14.925 12.8711 15.75 13.6867 15.75 14.7246ZM15.75 18.061H12V29.9237H15.75V18.061ZM21.75 18.061H18V29.9237H21.75V23.6958C21.75 20.2111 26.25 19.9146 26.25 23.6958V29.9237H30V22.4354C30 16.5782 23.325 16.8006 21.75 19.6921V18.061Z" fill="white"/>
</svg>
