<svg width="34" height="35" viewBox="0 0 34 35" fill="none" xmlns="http://www.w3.org/2000/svg">
<g clip-path="url(#clip0_149_2192)">
<path d="M7.98134 24.7575C7.46353 24.7575 7.0487 24.3416 7.0487 23.8289C7.0487 23.3162 7.46925 22.9004 7.98134 22.9004H14.1293C14.6471 22.9004 15.062 23.3162 15.062 23.8289C15.062 24.3416 14.6443 24.7575 14.1293 24.7575H7.98134ZM18.2318 22.0658C17.9572 22.0658 17.7226 21.8323 17.7226 21.5474C17.7226 21.274 17.9572 21.0404 18.2318 21.0404H19.5621C19.5735 21.0404 19.6021 21.0404 19.6136 21.0404C20.0828 21.0518 20.5005 21.143 20.8523 21.3652C21.2443 21.613 21.5304 21.9889 21.6877 22.5472C21.6877 22.5586 21.6877 22.5728 21.702 22.5871L21.8336 23.1055H33.2456C33.5317 23.1055 33.7548 23.339 33.7548 23.6125C33.7548 23.6637 33.7405 23.715 33.7291 23.7691L32.3988 29.1069C32.3473 29.3404 32.1384 29.4971 31.9038 29.4971H23.5559C23.7389 30.1721 23.922 30.5367 24.1681 30.7048C24.4685 30.8984 24.9891 30.9127 25.8646 30.8984H25.876H31.7722C32.0583 30.8984 32.2815 31.132 32.2815 31.4054C32.2815 31.6903 32.0469 31.9124 31.7722 31.9124H25.8731C24.7889 31.9238 24.1252 31.8982 23.5902 31.5479C23.0409 31.1833 22.7548 30.5623 22.4687 29.4316L20.7207 22.8434C20.7207 22.8292 20.7207 22.8292 20.7093 22.8178C20.6321 22.533 20.5005 22.3364 20.3174 22.2339C20.1343 22.1171 19.8882 22.0658 19.5993 22.0658C19.585 22.0658 19.5735 22.0658 19.5592 22.0658H18.2318ZM30.2445 32.5077C30.9369 32.5077 31.4976 33.066 31.4976 33.7553C31.4976 34.4446 30.9369 35.0028 30.2445 35.0028C29.5522 35.0028 28.9915 34.4446 28.9915 33.7553C28.9915 33.066 29.5522 32.5077 30.2445 32.5077ZM24.7517 32.5077C25.444 32.5077 26.0047 33.066 26.0047 33.7553C26.0047 34.4446 25.444 35.0028 24.7517 35.0028C24.0594 35.0028 23.4986 34.4446 23.4986 33.7553C23.4986 33.066 24.0622 32.5077 24.7517 32.5077ZM7.98134 9.56462C7.46353 9.56462 7.0487 9.14592 7.0487 8.63607C7.0487 8.12337 7.46925 7.70752 7.98134 7.70752H22.4344C22.9522 7.70752 23.367 8.12337 23.367 8.63607C23.367 9.14876 22.9494 9.56462 22.4344 9.56462H7.98134ZM2.91762 0H27.4151C28.0131 0 28.5566 0.242106 28.9457 0.629476C29.3348 1.01685 29.578 1.55802 29.578 2.15332V19.2375H27.7184V2.16187C27.7184 2.07926 27.6841 2.00236 27.6297 1.94539C27.5725 1.89128 27.4953 1.8571 27.4123 1.8571H2.91762C2.83466 1.8571 2.75741 1.89128 2.7002 1.94539C2.64298 1.99951 2.61437 2.07926 2.61437 2.16187V30.2661C2.61437 30.3487 2.6487 30.4256 2.70306 30.4826C2.75741 30.5396 2.83466 30.5709 2.92048 30.5709H18.6695C18.844 31.2516 19.0414 31.8469 19.3075 32.4137H2.91762C2.3197 32.4137 1.77614 32.1716 1.38706 31.7843C0.995126 31.3997 0.751953 30.8586 0.751953 30.2633V2.15617C0.751953 1.56087 0.995126 1.01685 1.3842 0.629476C1.77328 0.242106 2.3197 0 2.91762 0ZM7.98134 17.1611C7.46353 17.1611 7.0487 16.7452 7.0487 16.2325C7.0487 15.7198 7.46925 15.304 7.98134 15.304H22.4344C22.9522 15.304 23.367 15.7198 23.367 16.2325C23.367 16.7452 22.9494 17.1611 22.4344 17.1611H7.98134Z" fill="black"/>
</g>
<defs>
<clipPath id="clip0_149_2192">
<rect width="33" height="35" fill="white" transform="translate(0.751953)"/>
</clipPath>
</defs>
</svg>
