<svg width="42" height="42" viewBox="0 0 42 42" fill="none" xmlns="http://www.w3.org/2000/svg">
<path fill-rule="evenodd" clip-rule="evenodd" d="M17.3127 16.1052C13.414 18.356 19.3626 29.5078 23.6287 27.0447C24.3863 28.357 26.8266 32.5837 27.5842 33.8958C25.7843 34.9351 24.2606 35.5902 22.1739 34.3973C16.3797 31.085 10.0017 20.0426 10.1835 13.4558C10.2465 11.1681 11.5943 10.2718 13.3573 9.25391C14.1149 10.5661 16.5551 14.793 17.3127 16.1052Z" fill="white"/>
<path fill-rule="evenodd" clip-rule="evenodd" d="M18.948 15.9178C18.5268 16.161 17.9847 16.0159 17.7415 15.5946L14.0125 9.13578C13.7692 8.71445 13.9144 8.17238 14.3357 7.92916L16.2956 6.79762C16.7168 6.55436 17.259 6.69966 17.5023 7.12095L21.2312 13.5797C21.4744 14.0009 21.3292 14.543 20.908 14.7862L18.948 15.9178Z" fill="white"/>
<path fill-rule="evenodd" clip-rule="evenodd" d="M29.1355 33.5623C28.7143 33.8055 28.1722 33.6603 27.929 33.239L24.2 26.7802C23.9567 26.3589 24.1019 25.8168 24.5232 25.5737L26.4831 24.4421C26.9043 24.1989 27.4465 24.3442 27.6898 24.7654L31.4187 31.2242C31.6619 31.6455 31.5167 32.1876 31.0955 32.4307L29.1355 33.5623Z" fill="white"/>
<path d="M20.8594 0L20.8597 0.00485814C26.6219 0.00494647 31.8365 2.33837 35.608 6.11035C39.3798 9.88212 41.7132 15.0965 41.7133 20.8587H41.7182V20.8597H41.7133C41.7132 26.6219 39.3798 31.8365 35.6078 35.608C31.836 39.3798 26.6217 41.7132 20.8595 41.7133V41.7182H20.8585V41.7133C15.0963 41.7132 9.88169 39.3798 6.11014 35.6078C2.33837 31.836 0.0050013 26.6217 0.00485814 20.8595H0V20.8585H0.00485814C0.00494647 15.0963 2.33837 9.88169 6.11035 6.11014C9.88212 2.33837 15.0965 0.0050013 20.8587 0.00485814L20.8594 0ZM20.8597 2.48798V2.49284H20.8587V2.48798C15.7914 2.48811 11.1997 4.54612 7.87337 7.87266C4.54654 11.1994 2.48847 15.7916 2.48847 20.8587H2.49333V20.8597H2.48847C2.4886 25.927 4.54661 30.5187 7.87315 33.845C11.1999 37.1719 15.7921 39.2299 20.8592 39.2299V39.2251H20.8602V39.2299C25.9275 39.2298 30.5192 37.1718 33.8455 33.8452C37.1723 30.5185 39.2304 25.9263 39.2304 20.8592H39.2256V20.8582H39.2304C39.2303 15.7909 37.1723 11.1992 33.8457 7.87288C30.519 4.54605 25.9268 2.48798 20.8597 2.48798Z" fill="white"/>
</svg>
