<svg width="39" height="38" viewBox="0 0 39 38" fill="none" xmlns="http://www.w3.org/2000/svg">
<path d="M19.5047 1C9.70011 1 1.75195 8.94816 1.75195 18.7527C1.75195 28.5572 9.70011 36.5054 19.5047 36.5054C29.3091 36.5054 37.2574 28.5572 37.2574 18.7527C37.2574 8.94816 29.3091 1 19.5047 1Z" stroke="black" stroke-width="2" stroke-linecap="round" stroke-linejoin="round"/>
<path d="M5.78516 30.0206C5.78516 30.0206 9.74227 24.9688 19.5062 24.9688C29.2702 24.9688 33.2275 30.0206 33.2275 30.0206" stroke="black" stroke-width="2" stroke-linecap="round" stroke-linejoin="round"/>
<path d="M19.5055 18.7532C22.4469 18.7532 24.8313 16.3688 24.8313 13.4274C24.8313 10.486 22.4469 8.10156 19.5055 8.10156C16.5641 8.10156 14.1797 10.486 14.1797 13.4274C14.1797 16.3688 16.5641 18.7532 19.5055 18.7532Z" stroke="black" stroke-width="2" stroke-linecap="round" stroke-linejoin="round"/>
</svg>
