<svg width="32" height="62" viewBox="0 0 32 62" fill="none" xmlns="http://www.w3.org/2000/svg">
<path fill-rule="evenodd" clip-rule="evenodd" d="M31.3208 13.8847C31.4994 14.3978 31.5215 14.8881 31.3877 15.3557C31.0311 16.493 30.5294 17.3185 29.8825 17.8309C28.1659 19.2364 26.1363 20.2726 23.7949 20.9416C23.3935 21.0754 22.7915 21.3095 21.9887 21.644C21.2529 21.9116 20.5953 22.034 20.0153 22.0119C19.5022 21.9678 19.2794 22.313 19.3463 23.0488L19.6473 27.1302C19.826 29.4716 20.1491 32.9616 20.6173 37.5988C20.9739 41.7243 21.186 45.225 21.2529 48.1016C21.3418 51.8705 21.5204 54.6575 21.788 56.4637C21.8322 56.8878 21.8436 57.2002 21.8215 57.4002C21.7767 57.7126 21.7994 58.2143 21.8884 58.9054C21.9105 59.5068 21.7432 59.864 21.3867 59.9757C20.2046 60.355 19.458 60.5778 19.1456 60.6447C18.2539 60.7564 17.4618 60.6005 16.7708 60.1764C15.9901 59.6633 15.5446 58.9723 15.4329 58.1026C15.2322 55.7392 15.1097 52.9068 15.0649 49.6068C15.0649 45.8606 15.0649 43.0402 15.0649 41.145C15.1318 40.6988 15.1539 40.3643 15.1318 40.1416C15.1098 39.7623 14.8863 39.5395 14.4629 39.4726C14.0167 39.383 13.7384 39.5395 13.6267 39.9402L13.4929 40.9437C13.2701 42.9506 13.0694 45.2364 12.8908 47.8006L12.1884 56.4971C12.1436 56.9433 12.0432 57.5568 11.8873 58.3368C11.6418 59.4519 10.9729 60.1985 9.88045 60.5785C8.85492 60.9571 7.88492 60.7899 6.97045 60.0767C6.70286 59.8761 6.52425 59.5971 6.43528 59.2405C6.36838 59.1288 6.31219 58.8057 6.26803 58.2705C6.17906 57.3561 6.17906 56.3305 6.26803 55.1933C6.29011 54.6575 6.37975 53.6319 6.53562 52.1154C6.84803 48.7485 7.37183 43.6864 8.10769 36.9299L8.34183 35.4923L8.00734 35.4588C7.33838 37.6443 6.81391 39.2833 6.43528 40.3757C6.0339 41.4012 5.35356 42.0481 4.39493 42.3157C3.43563 42.5385 2.52183 42.2936 1.65217 41.5792C1.02736 41.0219 0.771143 40.4199 0.882861 39.773C0.971833 38.6364 1.10563 37.7881 1.28424 37.2309C1.68562 36.0047 2.24354 33.9757 2.95665 31.1433C3.60354 28.5116 4.18287 26.4826 4.69596 25.0551C5.72149 22.1564 6.68078 19.6144 7.57251 17.4295L8.17458 16.2588C9.02216 14.9651 10.126 14.3188 11.486 14.3188C13.4929 14.2519 15.0094 14.2078 16.0349 14.185C17.7963 14.185 19.3129 14.2633 20.5839 14.4198C21.4756 14.5536 22.2784 14.464 22.9922 14.1523C23.5053 13.8853 23.817 13.6171 23.9287 13.3495C24.0625 13.0598 23.9956 12.6364 23.728 12.0791C23.5942 11.7005 23.4718 11.4215 23.3601 11.2429C23.1815 10.9526 22.9366 10.7633 22.6242 10.6736L22.3232 10.9084C21.8549 11.756 21.3532 12.2129 20.818 12.2798C20.2829 12.3915 19.6587 12.1126 18.9449 11.4436C18.6773 11.1988 18.5877 10.9198 18.6773 10.6074C18.9677 9.62604 19.1235 9.09087 19.1456 9.00189L21.0522 2.9812C21.1411 2.57983 21.2415 2.29016 21.3532 2.11155C21.5318 1.82122 21.8436 1.68809 22.2898 1.71017C22.8029 1.73225 23.2705 1.86604 23.6946 2.11155C24.096 2.35706 24.3194 2.64672 24.3636 2.9812C24.3863 3.58327 24.6091 4.11845 25.0325 4.58672C25.3001 4.85431 25.7015 5.21154 26.2367 5.65707C28.0649 7.7536 29.548 10.0502 30.6853 12.5481C30.8191 12.8585 31.0305 13.3047 31.3208 13.8847ZM21.8543 3.61605C21.6756 4.12915 21.4081 5.09915 21.0515 6.52672C20.717 7.77501 20.4046 8.74501 20.115 9.43672C20.0922 9.50362 20.0815 9.72705 20.0815 10.1057C19.9477 10.5519 20.1263 10.8523 20.6167 11.0088C21.0401 11.0984 21.3077 10.9198 21.4194 10.4736L23.2591 4.085C23.415 3.41603 23.237 3.01465 22.7239 2.88086C22.4784 2.79122 22.2777 2.83671 22.1218 3.01465C22.0556 3.12503 21.966 3.32572 21.8543 3.61605ZM18.5436 5.12123C18.967 6.97225 18.8111 8.72293 18.0753 10.3733C17.5401 11.6436 16.5032 12.5026 14.9646 12.9488C13.4708 13.3729 12.1215 13.2277 10.9173 12.514C8.66494 11.154 7.58389 9.3812 7.67286 7.19636C7.60596 5.74671 8.01871 4.40878 8.91045 3.18256C9.7801 1.95568 10.8391 1.21982 12.088 0.974308C12.846 0.751542 13.4146 0.617749 13.7939 0.572929C14.4849 0.506032 15.0429 0.673274 15.4663 1.07465C16.5139 2.0112 17.1387 2.6019 17.3394 2.84741C17.9636 3.55986 18.3649 4.3178 18.5436 5.12123ZM25.4673 6.35881C25.0211 5.95676 24.5308 5.6671 23.9956 5.48849C23.4156 6.64781 23.1146 7.59573 23.0925 8.33159C23.0704 9.31296 23.4718 10.1712 24.2967 10.9078C24.3856 10.9967 24.5529 11.2643 24.7984 11.7105C25.088 12.3795 25.1329 13.0143 24.9322 13.6171C24.7094 14.1964 24.2632 14.6647 23.5942 15.0219C22.4791 15.5798 21.2749 15.7136 19.9818 15.424C19.7142 15.3564 18.8446 15.3009 17.3729 15.2567C16.726 15.2126 15.8008 15.2346 14.5967 15.3236C13.3477 15.4353 12.4225 15.4688 11.8204 15.424C11.0398 15.4019 10.4042 15.5578 9.91389 15.8922C9.44562 16.204 9.03287 16.7284 8.67631 17.4643C7.89563 18.9809 7.10424 20.9322 6.30148 23.3178C5.83321 24.6557 5.16424 26.6405 4.29458 29.2715C3.91595 30.3191 3.71459 31.1112 3.69251 31.6464C3.60354 32.8947 3.22424 34.3891 2.55527 36.1284C2.1539 37.3547 1.99803 38.5253 2.087 39.6405C2.19872 40.3764 2.72252 40.7992 3.65907 40.9109C4.17216 40.9557 4.51735 40.9664 4.69596 40.9443C5.05252 40.8333 5.32078 40.5657 5.49872 40.1422C5.74423 39.4512 6.21184 37.9681 6.90355 35.6936C7.08216 35.0915 7.49425 33.9991 8.14114 32.4157C8.69838 31.0557 9.06631 29.9412 9.24493 29.0709C9.31182 28.8702 9.46769 28.826 9.7132 28.9377C9.91389 28.9819 10.0142 29.0602 10.0142 29.1719L9.91389 30.1084C9.31182 34.5457 8.76528 38.916 8.27493 43.2201C8.09632 45.0043 7.76183 49.0067 7.27148 55.2281C7.20459 56.0088 7.2494 56.9446 7.40527 58.0377C7.47217 58.5508 7.62804 58.896 7.87355 59.0746C8.11906 59.2305 8.52044 59.286 9.07769 59.2419C9.76873 59.1522 10.2256 58.9964 10.4491 58.7736C10.7167 58.506 10.906 57.9815 11.0177 57.2015C11.2405 55.6402 11.4411 53.6333 11.6198 51.1808C11.8873 47.7464 12.0432 45.7395 12.088 45.1602C12.1997 43.8664 12.2774 42.8743 12.3222 42.1833C12.4339 41.0239 12.6011 40.0533 12.8239 39.2726C13.1363 38.314 13.8273 37.9688 14.8977 38.2357C15.6556 38.3916 16.0015 38.9495 15.9346 39.9081C15.7339 44.5467 15.8677 50.1319 16.336 56.6657C16.3587 57.2236 16.4142 57.6471 16.5032 57.9367C16.6591 58.3829 16.916 58.7288 17.2725 58.9736C17.5843 59.1743 18.0532 59.2967 18.6773 59.3415C19.4353 59.3636 19.9263 59.4198 20.1491 59.5088C20.2608 59.5309 20.3718 59.4646 20.4836 59.3081C20.5953 59.1516 20.6508 58.9957 20.6508 58.8398C20.6949 58.1709 20.7177 57.6812 20.7177 57.3688C20.8067 55.6067 20.7732 53.3102 20.6173 50.4778C20.4167 46.8433 20.2942 44.5467 20.2494 43.5874C20.2053 40.3985 20.0822 38.1688 19.8815 36.8978C19.6808 35.5819 19.4687 33.6426 19.246 31.0778C19.0232 28.4246 18.8225 26.4733 18.6439 25.2243C18.4432 23.7305 18.4653 22.1143 18.7108 20.3743C19.6694 20.8426 20.6173 20.9102 21.5539 20.5757L25.0994 19.405C26.3704 19.0478 27.7532 18.2343 29.247 16.9633C30.3173 16.0715 30.5849 15.034 30.0498 13.8526C29.0022 11.3553 27.8087 9.25945 26.4708 7.56496C26.0467 6.98296 25.7122 6.58158 25.4673 6.35881ZM16.7708 6.45916C16.146 5.5895 15.6777 4.95398 15.366 4.5526C14.8529 3.794 14.2066 3.41536 13.426 3.41536C13.4701 2.94709 13.7049 2.6795 14.1284 2.6126L15.0649 2.37847L16.5701 4.38536C17.1053 5.1433 17.1715 5.83434 16.7708 6.45916ZM17.7401 5.5895C17.3836 3.96124 16.4691 2.86949 14.9974 2.31157C14.7967 1.86604 14.4287 1.67672 13.8936 1.74295C13.0908 1.87674 12.6446 1.93227 12.5556 1.91019C12.0653 1.75432 11.4632 1.98779 10.7494 2.6126C9.83496 3.32572 9.22151 4.27365 8.90978 5.45571C8.59737 6.63777 8.66427 7.76364 9.11047 8.83398C9.80151 10.596 11.0284 11.5995 12.7898 11.8443C14.7298 12.1119 16.1567 11.4657 17.0712 9.905C17.8298 8.5664 18.0525 7.12812 17.7401 5.5895ZM16.6698 26.3274C16.3132 26.2833 16.1125 26.0826 16.0677 25.7254C16.0236 25.3688 16.2236 25.1902 16.6698 25.1902C17.0712 25.2578 17.2718 25.4578 17.2718 25.7923C17.2277 26.1709 17.027 26.3495 16.6698 26.3274ZM17.607 29.4716L18.2091 35.2247C17.8518 35.1805 17.5956 35.0574 17.4398 34.8567C17.3501 34.7671 17.2839 34.5892 17.2391 34.3216L16.6035 29.7057C16.5587 29.3271 16.6925 29.0809 17.0049 28.9698C17.3615 28.9023 17.5622 29.0695 17.607 29.4716ZM11.6198 4.28502C11.3074 4.21812 11.1515 4.06225 11.1515 3.81674C11.1515 3.39329 11.3635 3.23742 11.787 3.34914C12.0767 3.39329 12.1884 3.56053 12.1215 3.85086C12.0987 4.07296 11.9315 4.21812 11.6198 4.28502ZM7.30426 27.0298C7.75046 27.074 7.96185 27.2533 7.93978 27.565C7.8508 27.8995 7.56047 28.1009 7.07012 28.1671C6.75771 28.1002 6.60185 27.9443 6.60185 27.6988C6.60251 27.2526 6.83665 27.0298 7.30426 27.0298ZM6.23458 30.073C6.25666 30.073 6.40183 30.073 6.66941 30.073C7.09287 30.073 7.30493 30.1961 7.30493 30.4416C7.32767 30.8429 7.11561 31.0657 6.66941 31.1105C6.20114 30.9988 5.967 30.7647 5.967 30.4075C5.98907 30.2295 6.07805 30.1185 6.23458 30.073ZM5.26459 34.4888C4.9301 34.4888 4.74078 34.355 4.69596 34.0868C4.62907 33.5516 4.8632 33.2619 5.39838 33.2171C5.66596 33.1502 5.79976 33.3067 5.79976 33.6854C5.84391 34.1543 5.66596 34.4212 5.26459 34.4888ZM9.94734 51.6471C9.56804 51.6919 9.37872 51.514 9.37872 51.1119C9.37872 50.8223 9.52389 50.655 9.81355 50.6102C10.0811 50.5212 10.2932 50.6323 10.4491 50.9447C10.4042 51.4136 10.237 51.6471 9.94734 51.6471ZM9.34527 54.8588C9.63494 54.8588 9.80218 55.014 9.847 55.3264C9.86907 55.6609 9.69113 55.8623 9.31183 55.9285C8.88837 55.9285 8.67631 55.7499 8.67631 55.3933C8.69838 55.0374 8.92115 54.8588 9.34527 54.8588Z" fill="#222831" stroke="#222831" stroke-width="0.5"/>
</svg>
