<svg width="42" height="49" viewBox="0 0 42 49" fill="none" xmlns="http://www.w3.org/2000/svg">
<mask id="path-1-inside-1_149_2042" fill="white">
<path d="M0.663727 24.8402V24.8842C0.516955 29.9625 0.409323 36.3617 0.335938 43.4165V44.7815C0.350664 45.431 0.518275 46.068 0.825175 46.6406C1.13965 47.2223 1.58982 47.7194 2.13747 48.0899C2.68512 48.4604 3.31409 48.6933 3.97097 48.7688C4.13242 48.7688 4.31344 48.7688 4.46021 48.7982H5.49739H6.89172H9.70972L21.1726 48.8618L32.6647 48.8373H35.4779H36.8722H37.9143C38.0806 48.8373 38.2469 48.8373 38.4035 48.803C39.3884 48.6801 40.2953 48.2044 40.9565 47.4641C41.6176 46.7238 41.9881 45.7691 41.9994 44.7766V43.4263C41.926 36.3764 41.8184 29.987 41.6765 24.9234V24.8744C41.6718 24.7398 41.6363 24.6081 41.5727 24.4893C41.509 24.3706 41.419 24.268 41.3096 24.1895C38.3448 22.0613 36.4172 20.7306 34.8467 19.6543C34.8467 19.2874 34.8467 18.9155 34.8761 18.5339V18.3285C34.8761 18.2649 34.8761 18.1425 34.8761 18.0496C34.8745 17.8412 34.8548 17.6333 34.8174 17.4283C34.7364 17.0237 34.5893 16.6352 34.382 16.2785C33.9594 15.5467 33.3079 14.9742 32.5278 14.6494C32.1298 14.4823 31.7062 14.3847 31.2753 14.3607C31.0258 14.3607 30.9328 14.3607 30.7861 14.3607H30.5708C30.654 13.5926 30.7274 12.6973 30.7959 11.6944L30.8546 10.7159C30.8546 10.3392 30.8546 9.94292 30.8546 9.53686C30.8233 9.12215 30.7628 8.71017 30.6735 8.30398C30.5867 7.87638 30.4673 7.45604 30.3164 7.04664C29.6549 5.25278 28.4768 3.69508 26.9309 2.57012C26.1093 1.97497 25.202 1.50813 24.2401 1.18557C23.2486 0.863492 22.2148 0.690372 21.1726 0.671875C20.1397 0.684581 19.1143 0.849431 18.1295 1.16111C17.1671 1.48476 16.2598 1.95329 15.4387 2.55055C13.8957 3.67628 12.721 5.23405 12.063 7.02707L11.877 7.64351C11.8134 7.84899 11.7792 8.06425 11.7303 8.27462C11.6412 8.68084 11.5807 9.09281 11.5493 9.5075C11.515 9.90868 11.5493 10.3098 11.5493 10.6817L11.6129 11.6601C11.6814 12.6386 11.7547 13.5535 11.8379 14.3265H11.5982C11.4416 14.3265 11.3389 14.3265 11.1089 14.3265C10.6794 14.3527 10.2575 14.452 9.86139 14.62C9.058 14.9476 8.38902 15.5373 7.96315 16.2932C7.75938 16.6459 7.61399 17.0292 7.53262 17.4283C7.47101 17.7835 7.45131 18.1447 7.47391 18.5046C7.47391 18.7003 7.47391 18.8911 7.47391 19.0868C5.91814 20.2707 4.04925 21.7433 0.986623 24.1895C0.88938 24.2686 0.810233 24.3675 0.754528 24.4798C0.698824 24.5921 0.667859 24.715 0.663727 24.8402ZM39.519 44.6983C39.5086 44.9482 39.4417 45.1924 39.3233 45.4126C39.1999 45.6326 39.026 45.8201 38.8159 45.9596C38.6058 46.0991 38.3655 46.1867 38.1148 46.215C38.0512 46.215 37.9876 46.215 37.924 46.215H36.8918H35.4974H32.6843L21.1726 46.1709L9.68037 46.2003H4.23027C3.97895 46.1741 3.73744 46.0886 3.52565 45.9508C3.31385 45.813 3.13782 45.6269 3.01207 45.4077C2.88961 45.1886 2.8193 44.9442 2.80659 44.6935V43.397C2.74299 37.0369 2.64514 31.2443 2.52283 26.4498C5.3017 28.6318 9.94945 31.8999 15.1109 35.3735C12.2146 36.8412 7.88487 40.0897 6.66667 41.8803C6.74277 42.1108 6.8642 42.3237 7.02381 42.5066C7.2244 42.7805 7.40542 42.9958 7.44945 42.9713C9.70483 42.3794 14.7587 38.8471 16.8477 36.5574C18.0317 37.3451 19.2303 38.1377 20.4387 38.9302C20.6571 39.0723 20.912 39.148 21.1726 39.148C21.4331 39.148 21.688 39.0723 21.9064 38.9302C23.1099 38.1426 24.3086 37.3451 25.4925 36.5574C27.5816 38.8471 32.6354 42.3794 34.8712 42.9958C34.9152 42.9958 35.1354 42.761 35.3604 42.4527C35.5056 42.2902 35.6141 42.0983 35.6784 41.8901C34.4602 40.1093 30.1207 36.851 27.2293 35.3931C32.3908 31.9195 37.0141 28.6465 39.8125 26.4596C39.6902 31.2492 39.5972 37.0467 39.5336 43.3921L39.519 44.6983ZM39.4505 25.0163C38.1197 25.7159 36.4221 26.6846 34.4798 27.8392C34.6119 26.0682 34.7195 23.8519 34.8027 21.3373C36.0013 22.3206 37.4544 23.4606 39.4505 25.0163ZM13.5209 10.6963C13.56 10.3881 13.5796 10.0848 13.6334 9.77169C13.69 9.45562 13.7668 9.1435 13.8633 8.83725C13.9172 8.68069 13.9514 8.51924 14.015 8.34801L14.2107 7.88323C14.7984 6.57856 15.7345 5.46127 16.9162 4.65427C17.5333 4.23474 18.2071 3.90527 18.9172 3.67579C19.6513 3.46948 20.41 3.36414 21.1726 3.36268C21.9263 3.37492 22.6751 3.48847 23.3986 3.70025C24.1085 3.93011 24.7822 4.25955 25.3996 4.67873C26.5787 5.48507 27.5131 6.60053 28.1002 7.9028C28.2383 8.20552 28.3544 8.51782 28.4475 8.83725C28.5442 9.14344 28.621 9.45557 28.6775 9.77169C28.7362 10.0848 28.7508 10.3881 28.79 10.6915L28.8487 11.6699C28.9123 12.6484 28.9857 13.5486 29.0688 14.3167H28.5454L25.7029 14.2922C25.8399 13.3578 25.9475 12.2179 26.0258 10.941C26.0462 10.6592 26.0462 10.3763 26.0258 10.0946C25.9985 9.77318 25.9395 9.45526 25.8497 9.14547C25.6601 8.49839 25.3368 7.89835 24.9005 7.38421C24.4413 6.84294 23.8697 6.40809 23.2255 6.10986C22.5813 5.81162 21.88 5.65715 21.1701 5.65715C20.4602 5.65715 19.7589 5.81162 19.1147 6.10986C18.4705 6.40809 17.8989 6.84294 17.4397 7.38421C16.9932 7.89588 16.6597 8.49605 16.4612 9.14547C16.3799 9.4545 16.3291 9.77075 16.3095 10.0897C16.2892 10.3715 16.2892 10.6543 16.3095 10.9361C16.3878 12.213 16.4954 13.3823 16.6275 14.2922L13.7949 14.3167H13.2567C13.3399 13.5535 13.4132 12.6631 13.4817 11.6748L13.5209 10.6963ZM23.9857 14.2873H21.1726H18.3545C18.4866 13.3578 18.5943 12.213 18.6726 10.941C18.6768 10.7556 18.6948 10.5708 18.7264 10.3881C18.7587 10.2312 18.8045 10.0773 18.8634 9.92825C18.9854 9.6245 19.1648 9.34711 19.3917 9.11122C19.6204 8.86836 19.8964 8.67485 20.2026 8.54258C20.5089 8.41031 20.839 8.34208 21.1726 8.34208C21.5061 8.34208 21.8362 8.41031 22.1425 8.54258C22.4487 8.67485 22.7247 8.86836 22.9534 9.11122C23.182 9.34676 23.363 9.62416 23.4866 9.92825C23.5453 10.0774 23.5912 10.2312 23.6236 10.3881C23.6583 10.5706 23.6795 10.7554 23.6872 10.941C23.7655 12.2179 23.8731 13.3529 24.0052 14.2873H23.9857ZM9.8565 17.9175C9.91529 17.6956 10.0264 17.4909 10.1804 17.3207C10.3345 17.1505 10.527 17.0196 10.742 16.939C10.8845 16.8857 11.0351 16.8575 11.1872 16.8558C11.2313 16.8558 11.4221 16.8558 11.559 16.8558H11.9994L13.79 16.8803C16.197 16.9097 18.6823 16.9243 21.1677 16.9243C23.653 16.9243 26.1383 16.939 28.5454 16.939H30.336H30.7763C30.9084 16.939 31.109 16.939 31.153 16.939C31.3049 16.9386 31.4556 16.9651 31.5982 17.0173C31.884 17.1232 32.1278 17.3189 32.2929 17.575C32.3768 17.6993 32.4396 17.8364 32.4788 17.9811C32.4984 18.0532 32.5115 18.1269 32.518 18.2013C32.518 18.2453 32.518 18.26 32.518 18.3333V18.5388C32.6256 22.7071 32.787 26.2932 33.0072 28.7639C29.4896 30.8578 25.3311 33.485 21.1726 36.1954C17.0091 33.4752 12.8555 30.8431 9.31344 28.6807C9.52871 26.2345 9.69016 22.6337 9.80268 18.485C9.7955 18.2943 9.81359 18.1035 9.8565 17.9175ZM7.89955 27.8099C5.9426 26.6357 4.2107 25.6523 2.87508 24.9478C4.92988 23.167 6.37802 21.8852 7.55708 20.8187C7.62068 23.5633 7.7381 25.9508 7.87508 27.8343L7.89955 27.8099Z"/>
</mask>
<path d="M0.663727 24.8402V24.8842C0.516955 29.9625 0.409323 36.3617 0.335938 43.4165V44.7815C0.350664 45.431 0.518275 46.068 0.825175 46.6406C1.13965 47.2223 1.58982 47.7194 2.13747 48.0899C2.68512 48.4604 3.31409 48.6933 3.97097 48.7688C4.13242 48.7688 4.31344 48.7688 4.46021 48.7982H5.49739H6.89172H9.70972L21.1726 48.8618L32.6647 48.8373H35.4779H36.8722H37.9143C38.0806 48.8373 38.2469 48.8373 38.4035 48.803C39.3884 48.6801 40.2953 48.2044 40.9565 47.4641C41.6176 46.7238 41.9881 45.7691 41.9994 44.7766V43.4263C41.926 36.3764 41.8184 29.987 41.6765 24.9234V24.8744C41.6718 24.7398 41.6363 24.6081 41.5727 24.4893C41.509 24.3706 41.419 24.268 41.3096 24.1895C38.3448 22.0613 36.4172 20.7306 34.8467 19.6543C34.8467 19.2874 34.8467 18.9155 34.8761 18.5339V18.3285C34.8761 18.2649 34.8761 18.1425 34.8761 18.0496C34.8745 17.8412 34.8548 17.6333 34.8174 17.4283C34.7364 17.0237 34.5893 16.6352 34.382 16.2785C33.9594 15.5467 33.3079 14.9742 32.5278 14.6494C32.1298 14.4823 31.7062 14.3847 31.2753 14.3607C31.0258 14.3607 30.9328 14.3607 30.7861 14.3607H30.5708C30.654 13.5926 30.7274 12.6973 30.7959 11.6944L30.8546 10.7159C30.8546 10.3392 30.8546 9.94292 30.8546 9.53686C30.8233 9.12215 30.7628 8.71017 30.6735 8.30398C30.5867 7.87638 30.4673 7.45604 30.3164 7.04664C29.6549 5.25278 28.4768 3.69508 26.9309 2.57012C26.1093 1.97497 25.202 1.50813 24.2401 1.18557C23.2486 0.863492 22.2148 0.690372 21.1726 0.671875C20.1397 0.684581 19.1143 0.849431 18.1295 1.16111C17.1671 1.48476 16.2598 1.95329 15.4387 2.55055C13.8957 3.67628 12.721 5.23405 12.063 7.02707L11.877 7.64351C11.8134 7.84899 11.7792 8.06425 11.7303 8.27462C11.6412 8.68084 11.5807 9.09281 11.5493 9.5075C11.515 9.90868 11.5493 10.3098 11.5493 10.6817L11.6129 11.6601C11.6814 12.6386 11.7547 13.5535 11.8379 14.3265H11.5982C11.4416 14.3265 11.3389 14.3265 11.1089 14.3265C10.6794 14.3527 10.2575 14.452 9.86139 14.62C9.058 14.9476 8.38902 15.5373 7.96315 16.2932C7.75938 16.6459 7.61399 17.0292 7.53262 17.4283C7.47101 17.7835 7.45131 18.1447 7.47391 18.5046C7.47391 18.7003 7.47391 18.8911 7.47391 19.0868C5.91814 20.2707 4.04925 21.7433 0.986623 24.1895C0.88938 24.2686 0.810233 24.3675 0.754528 24.4798C0.698824 24.5921 0.667859 24.715 0.663727 24.8402ZM39.519 44.6983C39.5086 44.9482 39.4417 45.1924 39.3233 45.4126C39.1999 45.6326 39.026 45.8201 38.8159 45.9596C38.6058 46.0991 38.3655 46.1867 38.1148 46.215C38.0512 46.215 37.9876 46.215 37.924 46.215H36.8918H35.4974H32.6843L21.1726 46.1709L9.68037 46.2003H4.23027C3.97895 46.1741 3.73744 46.0886 3.52565 45.9508C3.31385 45.813 3.13782 45.6269 3.01207 45.4077C2.88961 45.1886 2.8193 44.9442 2.80659 44.6935V43.397C2.74299 37.0369 2.64514 31.2443 2.52283 26.4498C5.3017 28.6318 9.94945 31.8999 15.1109 35.3735C12.2146 36.8412 7.88487 40.0897 6.66667 41.8803C6.74277 42.1108 6.8642 42.3237 7.02381 42.5066C7.2244 42.7805 7.40542 42.9958 7.44945 42.9713C9.70483 42.3794 14.7587 38.8471 16.8477 36.5574C18.0317 37.3451 19.2303 38.1377 20.4387 38.9302C20.6571 39.0723 20.912 39.148 21.1726 39.148C21.4331 39.148 21.688 39.0723 21.9064 38.9302C23.1099 38.1426 24.3086 37.3451 25.4925 36.5574C27.5816 38.8471 32.6354 42.3794 34.8712 42.9958C34.9152 42.9958 35.1354 42.761 35.3604 42.4527C35.5056 42.2902 35.6141 42.0983 35.6784 41.8901C34.4602 40.1093 30.1207 36.851 27.2293 35.3931C32.3908 31.9195 37.0141 28.6465 39.8125 26.4596C39.6902 31.2492 39.5972 37.0467 39.5336 43.3921L39.519 44.6983ZM39.4505 25.0163C38.1197 25.7159 36.4221 26.6846 34.4798 27.8392C34.6119 26.0682 34.7195 23.8519 34.8027 21.3373C36.0013 22.3206 37.4544 23.4606 39.4505 25.0163ZM13.5209 10.6963C13.56 10.3881 13.5796 10.0848 13.6334 9.77169C13.69 9.45562 13.7668 9.1435 13.8633 8.83725C13.9172 8.68069 13.9514 8.51924 14.015 8.34801L14.2107 7.88323C14.7984 6.57856 15.7345 5.46127 16.9162 4.65427C17.5333 4.23474 18.2071 3.90527 18.9172 3.67579C19.6513 3.46948 20.41 3.36414 21.1726 3.36268C21.9263 3.37492 22.6751 3.48847 23.3986 3.70025C24.1085 3.93011 24.7822 4.25955 25.3996 4.67873C26.5787 5.48507 27.5131 6.60053 28.1002 7.9028C28.2383 8.20552 28.3544 8.51782 28.4475 8.83725C28.5442 9.14344 28.621 9.45557 28.6775 9.77169C28.7362 10.0848 28.7508 10.3881 28.79 10.6915L28.8487 11.6699C28.9123 12.6484 28.9857 13.5486 29.0688 14.3167H28.5454L25.7029 14.2922C25.8399 13.3578 25.9475 12.2179 26.0258 10.941C26.0462 10.6592 26.0462 10.3763 26.0258 10.0946C25.9985 9.77318 25.9395 9.45526 25.8497 9.14547C25.6601 8.49839 25.3368 7.89835 24.9005 7.38421C24.4413 6.84294 23.8697 6.40809 23.2255 6.10986C22.5813 5.81162 21.88 5.65715 21.1701 5.65715C20.4602 5.65715 19.7589 5.81162 19.1147 6.10986C18.4705 6.40809 17.8989 6.84294 17.4397 7.38421C16.9932 7.89588 16.6597 8.49605 16.4612 9.14547C16.3799 9.4545 16.3291 9.77075 16.3095 10.0897C16.2892 10.3715 16.2892 10.6543 16.3095 10.9361C16.3878 12.213 16.4954 13.3823 16.6275 14.2922L13.7949 14.3167H13.2567C13.3399 13.5535 13.4132 12.6631 13.4817 11.6748L13.5209 10.6963ZM23.9857 14.2873H21.1726H18.3545C18.4866 13.3578 18.5943 12.213 18.6726 10.941C18.6768 10.7556 18.6948 10.5708 18.7264 10.3881C18.7587 10.2312 18.8045 10.0773 18.8634 9.92825C18.9854 9.6245 19.1648 9.34711 19.3917 9.11122C19.6204 8.86836 19.8964 8.67485 20.2026 8.54258C20.5089 8.41031 20.839 8.34208 21.1726 8.34208C21.5061 8.34208 21.8362 8.41031 22.1425 8.54258C22.4487 8.67485 22.7247 8.86836 22.9534 9.11122C23.182 9.34676 23.363 9.62416 23.4866 9.92825C23.5453 10.0774 23.5912 10.2312 23.6236 10.3881C23.6583 10.5706 23.6795 10.7554 23.6872 10.941C23.7655 12.2179 23.8731 13.3529 24.0052 14.2873H23.9857ZM9.8565 17.9175C9.91529 17.6956 10.0264 17.4909 10.1804 17.3207C10.3345 17.1505 10.527 17.0196 10.742 16.939C10.8845 16.8857 11.0351 16.8575 11.1872 16.8558C11.2313 16.8558 11.4221 16.8558 11.559 16.8558H11.9994L13.79 16.8803C16.197 16.9097 18.6823 16.9243 21.1677 16.9243C23.653 16.9243 26.1383 16.939 28.5454 16.939H30.336H30.7763C30.9084 16.939 31.109 16.939 31.153 16.939C31.3049 16.9386 31.4556 16.9651 31.5982 17.0173C31.884 17.1232 32.1278 17.3189 32.2929 17.575C32.3768 17.6993 32.4396 17.8364 32.4788 17.9811C32.4984 18.0532 32.5115 18.1269 32.518 18.2013C32.518 18.2453 32.518 18.26 32.518 18.3333V18.5388C32.6256 22.7071 32.787 26.2932 33.0072 28.7639C29.4896 30.8578 25.3311 33.485 21.1726 36.1954C17.0091 33.4752 12.8555 30.8431 9.31344 28.6807C9.52871 26.2345 9.69016 22.6337 9.80268 18.485C9.7955 18.2943 9.81359 18.1035 9.8565 17.9175ZM7.89955 27.8099C5.9426 26.6357 4.2107 25.6523 2.87508 24.9478C4.92988 23.167 6.37802 21.8852 7.55708 20.8187C7.62068 23.5633 7.7381 25.9508 7.87508 27.8343L7.89955 27.8099Z" fill="#222831" stroke="#222831" stroke-width="1.2" mask="url(#path-1-inside-1_149_2042)"/>
<path d="M20.8219 27.9996L20.8219 27.9997L20.8248 27.9999C21.0717 28.0198 21.3201 27.9897 21.5551 27.9114C21.7894 27.8333 22.0056 27.7088 22.1909 27.5454C22.38 27.3824 22.5319 27.1806 22.6361 26.9537C22.7406 26.7262 22.7947 26.4787 22.7947 26.2283C22.7947 25.9778 22.7406 25.7304 22.6361 25.5028C22.5317 25.2754 22.3794 25.0733 22.1897 24.9101C22.0025 24.748 21.7846 24.6251 21.549 24.5489C21.3131 24.4726 21.0643 24.4447 20.8174 24.4666L20.8171 24.4666C20.3434 24.5093 19.8978 24.71 19.552 25.0365L19.5519 25.0365L19.5483 25.04C19.2898 25.2924 19.084 25.593 18.9422 25.9242C18.9113 25.9308 18.8801 25.9362 18.8488 25.9405C18.7117 25.9254 18.5731 25.9229 18.435 25.9332C18.3755 25.9334 18.3173 25.9351 18.2612 25.9382C18.212 25.934 18.1675 25.9287 18.1289 25.9225C18.0668 25.3671 18.1828 24.8049 18.4623 24.3179L18.4623 24.3179L18.464 24.3149C18.6734 23.9401 18.9555 23.6109 19.2936 23.3465C19.6318 23.0821 20.0194 22.8878 20.4336 22.7751L20.4339 22.775C20.9369 22.6374 21.4643 22.6145 21.9773 22.7081C22.4902 22.8016 22.9755 23.0091 23.3975 23.3153C23.8585 23.6506 24.2337 24.0901 24.4924 24.5981C24.751 25.1061 24.8859 25.668 24.8859 26.238C24.8859 26.8081 24.751 27.37 24.4924 27.878C24.2337 28.3859 23.8585 28.8255 23.3975 29.1608L23.3972 29.161C22.975 29.469 22.489 29.6782 21.9752 29.7734C21.4613 29.8685 20.9327 29.8471 20.4282 29.7107L20.4276 29.7105C20.011 29.5988 19.621 29.4051 19.2804 29.1406C18.9397 28.8761 18.6554 28.5462 18.4441 28.1703L18.4441 28.1703L18.4431 28.1685C18.1636 27.6791 18.0464 27.115 18.1063 26.5571C18.1485 26.55 18.1993 26.5439 18.2573 26.5397C18.3487 26.5461 18.4463 26.5489 18.5453 26.5479C18.645 26.5548 18.7449 26.5537 18.844 26.5447C18.8796 26.55 18.9151 26.5564 18.9503 26.564C19.0949 26.8891 19.3023 27.1832 19.561 27.4291L19.561 27.4291C19.905 27.7559 20.3494 27.957 20.8219 27.9996Z" fill="#222831" stroke="#222831" stroke-width="0.6"/>
</svg>
