<svg width="58" height="52" viewBox="0 0 58 52" fill="none" xmlns="http://www.w3.org/2000/svg">
<mask id="path-1-inside-1_149_2024" fill="white">
<path d="M33.6843 47.7525C33.6843 48.2496 33.4869 48.7262 33.1354 49.0777C32.7839 49.4291 32.3073 49.6266 31.8102 49.6266H11.1954C10.6984 49.6266 10.2217 49.4291 9.87024 49.0777C9.51879 48.7262 9.32134 48.2496 9.32134 47.7525V45.8784H7.44727V47.7525C7.44727 48.7466 7.84216 49.6999 8.54507 50.4029C9.24799 51.1058 10.2013 51.5007 11.1954 51.5007H31.8102C32.8043 51.5007 33.7577 51.1058 34.4606 50.4029C35.1635 49.6999 35.5584 48.7466 35.5584 47.7525V44.9414H33.6843V47.7525Z"/>
</mask>
<path d="M33.6843 47.7525C33.6843 48.2496 33.4869 48.7262 33.1354 49.0777C32.7839 49.4291 32.3073 49.6266 31.8102 49.6266H11.1954C10.6984 49.6266 10.2217 49.4291 9.87024 49.0777C9.51879 48.7262 9.32134 48.2496 9.32134 47.7525V45.8784H7.44727V47.7525C7.44727 48.7466 7.84216 49.6999 8.54507 50.4029C9.24799 51.1058 10.2013 51.5007 11.1954 51.5007H31.8102C32.8043 51.5007 33.7577 51.1058 34.4606 50.4029C35.1635 49.6999 35.5584 48.7466 35.5584 47.7525V44.9414H33.6843V47.7525Z" fill="#222831"/>
<path d="M9.32134 45.8784H11.3213V43.8784H9.32134V45.8784ZM7.44727 45.8784V43.8784H5.44727V45.8784H7.44727ZM7.44727 47.7525H5.44727H7.44727ZM35.5584 44.9414H37.5584V42.9414H35.5584V44.9414ZM33.6843 44.9414V42.9414H31.6843V44.9414H33.6843ZM31.6843 47.7525C31.6843 47.7191 31.6976 47.6871 31.7212 47.6635L34.5496 50.4919C35.2761 49.7654 35.6843 48.78 35.6843 47.7525H31.6843ZM31.7212 47.6635C31.7448 47.6399 31.7768 47.6266 31.8102 47.6266V51.6266C32.8377 51.6266 33.8231 51.2184 34.5496 50.4919L31.7212 47.6635ZM31.8102 47.6266H11.1954V51.6266H31.8102V47.6266ZM11.1954 47.6266C11.2288 47.6266 11.2608 47.6399 11.2845 47.6635L8.45603 50.4919C9.18256 51.2184 10.1679 51.6266 11.1954 51.6266V47.6266ZM11.2845 47.6635C11.3081 47.6871 11.3213 47.7191 11.3213 47.7525H7.32134C7.32134 48.78 7.7295 49.7654 8.45603 50.4919L11.2845 47.6635ZM11.3213 47.7525V45.8784H7.32134V47.7525H11.3213ZM9.32134 43.8784H7.44727V47.8784H9.32134V43.8784ZM5.44727 45.8784V47.7525H9.44727V45.8784H5.44727ZM5.44727 47.7525C5.44727 49.277 6.05287 50.7391 7.13086 51.8171L9.95929 48.9886C9.63144 48.6608 9.44727 48.2162 9.44727 47.7525H5.44727ZM7.13086 51.8171C8.20885 52.8951 9.67091 53.5007 11.1954 53.5007V49.5007C10.7318 49.5007 10.2871 49.3165 9.95929 48.9886L7.13086 51.8171ZM11.1954 53.5007H31.8102V49.5007H11.1954V53.5007ZM31.8102 53.5007C33.3347 53.5007 34.7968 52.8951 35.8748 51.8171L33.0464 48.9886C32.7185 49.3165 32.2739 49.5007 31.8102 49.5007V53.5007ZM35.8748 51.8171C36.9528 50.7391 37.5584 49.277 37.5584 47.7525H33.5584C33.5584 48.2162 33.3742 48.6608 33.0464 48.9886L35.8748 51.8171ZM37.5584 47.7525V44.9414H33.5584V47.7525H37.5584ZM35.5584 42.9414H33.6843V46.9414H35.5584V42.9414ZM31.6843 44.9414V47.7525H35.6843V44.9414H31.6843Z" fill="#222831" mask="url(#path-1-inside-1_149_2024)"/>
<mask id="path-3-inside-2_149_2024" fill="white">
<path d="M35.5577 17.7656H33.6836V34.6323H35.5577V17.7656Z"/>
</mask>
<path d="M35.5577 17.7656H33.6836V34.6323H35.5577V17.7656Z" fill="#222831"/>
<path d="M33.6836 17.7656V15.7656H31.6836V17.7656H33.6836ZM35.5577 17.7656H37.5577V15.7656H35.5577V17.7656ZM35.5577 34.6323V36.6323H37.5577V34.6323H35.5577ZM33.6836 34.6323H31.6836V36.6323H33.6836V34.6323ZM33.6836 19.7656H35.5577V15.7656H33.6836V19.7656ZM33.5577 17.7656V34.6323H37.5577V17.7656H33.5577ZM35.5577 32.6323H33.6836V36.6323H35.5577V32.6323ZM35.6836 34.6323V17.7656H31.6836V34.6323H35.6836Z" fill="#222831" mask="url(#path-3-inside-2_149_2024)"/>
<mask id="path-5-inside-3_149_2024" fill="white">
<path d="M20.5635 4.64453H18.6895V6.51861H20.5635V4.64453Z"/>
</mask>
<path d="M20.5635 4.64453H18.6895V6.51861H20.5635V4.64453Z" fill="#222831"/>
<path d="M18.6895 4.64453V2.64453H16.6895V4.64453H18.6895ZM20.5635 4.64453H22.5635V2.64453H20.5635V4.64453ZM20.5635 6.51861V8.51861H22.5635V6.51861H20.5635ZM18.6895 6.51861H16.6895V8.51861H18.6895V6.51861ZM18.6895 6.64453H20.5635V2.64453H18.6895V6.64453ZM18.5635 4.64453V6.51861H22.5635V4.64453H18.5635ZM20.5635 4.51861H18.6895V8.51861H20.5635V4.51861ZM20.6895 6.51861V4.64453H16.6895V6.51861H20.6895Z" fill="#222831" mask="url(#path-5-inside-3_149_2024)"/>
<mask id="path-7-inside-4_149_2024" fill="white">
<path d="M24.3155 4.64453H22.4414V6.51861H24.3155V4.64453Z"/>
</mask>
<path d="M24.3155 4.64453H22.4414V6.51861H24.3155V4.64453Z" fill="#222831"/>
<path d="M22.4414 4.64453V2.64453H20.4414V4.64453H22.4414ZM24.3155 4.64453H26.3155V2.64453H24.3155V4.64453ZM24.3155 6.51861V8.51861H26.3155V6.51861H24.3155ZM22.4414 6.51861H20.4414V8.51861H22.4414V6.51861ZM22.4414 6.64453H24.3155V2.64453H22.4414V6.64453ZM22.3155 4.64453V6.51861H26.3155V4.64453H22.3155ZM24.3155 4.51861H22.4414V8.51861H24.3155V4.51861ZM24.4414 6.51861V4.64453H20.4414V6.51861H24.4414Z" fill="#222831" mask="url(#path-7-inside-4_149_2024)"/>
<mask id="path-9-inside-5_149_2024" fill="white">
<path d="M22.4405 45.8789H20.5664V47.753H22.4405V45.8789Z"/>
</mask>
<path d="M22.4405 45.8789H20.5664V47.753H22.4405V45.8789Z" fill="#222831"/>
<path d="M20.5664 45.8789V43.8789H18.5664V45.8789H20.5664ZM22.4405 45.8789H24.4405V43.8789H22.4405V45.8789ZM22.4405 47.753V49.753H24.4405V47.753H22.4405ZM20.5664 47.753H18.5664V49.753H20.5664V47.753ZM20.5664 47.8789H22.4405V43.8789H20.5664V47.8789ZM20.4405 45.8789V47.753H24.4405V45.8789H20.4405ZM22.4405 45.753H20.5664V49.753H22.4405V45.753ZM22.5664 47.753V45.8789H18.5664V47.753H22.5664Z" fill="#222831" mask="url(#path-9-inside-5_149_2024)"/>
<mask id="path-11-inside-6_149_2024" fill="white">
<path d="M48.678 4.64659V6.52066H50.5521V4.64659C50.5521 3.65251 50.1572 2.69916 49.4543 1.99624C48.7514 1.29333 47.798 0.898438 46.804 0.898438H37.4336V2.77251H46.804C47.301 2.77251 47.7777 2.96996 48.1291 3.32141C48.4806 3.67287 48.678 4.14955 48.678 4.64659Z"/>
</mask>
<path d="M48.678 4.64659V6.52066H50.5521V4.64659C50.5521 3.65251 50.1572 2.69916 49.4543 1.99624C48.7514 1.29333 47.798 0.898438 46.804 0.898438H37.4336V2.77251H46.804C47.301 2.77251 47.7777 2.96996 48.1291 3.32141C48.4806 3.67287 48.678 4.14955 48.678 4.64659Z" fill="#222831"/>
<path d="M48.678 6.52066H46.678V8.52066H48.678V6.52066ZM50.5521 6.52066V8.52066H52.5521V6.52066H50.5521ZM46.804 0.898438V-1.10156V0.898438ZM37.4336 0.898438V-1.10156H35.4336V0.898438H37.4336ZM37.4336 2.77251H35.4336V4.77251H37.4336V2.77251ZM46.804 2.77251V0.772511V2.77251ZM46.678 4.64659V6.52066H50.678V4.64659H46.678ZM48.678 8.52066H50.5521V4.52066H48.678V8.52066ZM52.5521 6.52066V4.64659H48.5521V6.52066H52.5521ZM52.5521 4.64659C52.5521 3.12208 51.9465 1.66002 50.8685 0.582031L48.0401 3.41046C48.3679 3.7383 48.5521 4.18295 48.5521 4.64659H52.5521ZM50.8685 0.582031C49.7905 -0.495956 48.3285 -1.10156 46.804 -1.10156V2.89844C47.2676 2.89844 47.7122 3.08262 48.0401 3.41046L50.8685 0.582031ZM46.804 -1.10156H37.4336V2.89844H46.804V-1.10156ZM35.4336 0.898438V2.77251H39.4336V0.898438H35.4336ZM37.4336 4.77251H46.804V0.772511H37.4336V4.77251ZM46.804 4.77251C46.7706 4.77251 46.7385 4.75925 46.7149 4.73563L49.5433 1.9072C48.8168 1.18067 47.8314 0.772511 46.804 0.772511V4.77251ZM46.7149 4.73563C46.6913 4.71201 46.678 4.67998 46.678 4.64659H50.678C50.678 3.61912 50.2699 2.63373 49.5433 1.9072L46.7149 4.73563Z" fill="#222831" mask="url(#path-11-inside-6_149_2024)"/>
<mask id="path-13-inside-7_149_2024" fill="white">
<path d="M39.3077 4.64453H37.4336V6.51861H39.3077V4.64453Z"/>
</mask>
<path d="M39.3077 4.64453H37.4336V6.51861H39.3077V4.64453Z" fill="#222831"/>
<path d="M37.4336 4.64453V2.64453H35.4336V4.64453H37.4336ZM39.3077 4.64453H41.3077V2.64453H39.3077V4.64453ZM39.3077 6.51861V8.51861H41.3077V6.51861H39.3077ZM37.4336 6.51861H35.4336V8.51861H37.4336V6.51861ZM37.4336 6.64453H39.3077V2.64453H37.4336V6.64453ZM37.3077 4.64453V6.51861H41.3077V4.64453H37.3077ZM39.3077 4.51861H37.4336V8.51861H39.3077V4.51861ZM39.4336 6.51861V4.64453H35.4336V6.51861H39.4336Z" fill="#222831" mask="url(#path-13-inside-7_149_2024)"/>
<mask id="path-15-inside-8_149_2024" fill="white">
<path d="M43.0538 4.64453H41.1797V6.51861H43.0538V4.64453Z"/>
</mask>
<path d="M43.0538 4.64453H41.1797V6.51861H43.0538V4.64453Z" fill="#222831"/>
<path d="M41.1797 4.64453V2.64453H39.1797V4.64453H41.1797ZM43.0538 4.64453H45.0538V2.64453H43.0538V4.64453ZM43.0538 6.51861V8.51861H45.0538V6.51861H43.0538ZM41.1797 6.51861H39.1797V8.51861H41.1797V6.51861ZM41.1797 6.64453H43.0538V2.64453H41.1797V6.64453ZM41.0538 4.64453V6.51861H45.0538V4.64453H41.0538ZM43.0538 4.51861H41.1797V8.51861H43.0538V4.51861ZM43.1797 6.51861V4.64453H39.1797V6.51861H43.1797Z" fill="#222831" mask="url(#path-15-inside-8_149_2024)"/>
<mask id="path-17-inside-9_149_2024" fill="white">
<path d="M41.1827 45.8789H39.3086V47.753H41.1827V45.8789Z"/>
</mask>
<path d="M41.1827 45.8789H39.3086V47.753H41.1827V45.8789Z" fill="#222831"/>
<path d="M39.3086 45.8789V43.8789H37.3086V45.8789H39.3086ZM41.1827 45.8789H43.1827V43.8789H41.1827V45.8789ZM41.1827 47.753V49.753H43.1827V47.753H41.1827ZM39.3086 47.753H37.3086V49.753H39.3086V47.753ZM39.3086 47.8789H41.1827V43.8789H39.3086V47.8789ZM39.1827 45.8789V47.753H43.1827V45.8789H39.1827ZM41.1827 45.753H39.3086V49.753H41.1827V45.753ZM41.3086 47.753V45.8789H37.3086V47.753H41.3086Z" fill="#222831" mask="url(#path-17-inside-9_149_2024)"/>
<path d="M1.88867 35.5342V34.6664C2.02158 35.1704 2.25703 35.6438 2.58226 36.0559L1.88867 35.5342ZM1.76275 38.8475L0.888672 38.8484L1.76275 38.8475Z" fill="#222831" stroke="#222831" stroke-width="2"/>
<path d="M56.1084 16.8624V17.7303C55.9755 17.2263 55.7401 16.7528 55.4148 16.3408L56.1084 16.8624ZM51.9547 9.39453C53.0559 9.39602 54.1115 9.83411 54.8902 10.6128C55.6689 11.3914 56.107 12.4471 56.1084 13.5482L51.9547 9.39453Z" fill="#222831" stroke="#222831" stroke-width="2"/>
</svg>
