<svg width="24" height="19" viewBox="0 0 24 19" fill="none" xmlns="http://www.w3.org/2000/svg">
<path d="M7.87561 18.3984C16.2667 18.3984 20.8555 11.474 20.8555 5.46968C20.8555 5.27295 20.8514 5.07722 20.8423 4.88225C21.733 4.24092 22.5074 3.44038 23.1181 2.52951C22.3007 2.89124 21.4212 3.13482 20.4984 3.24465C21.4401 2.68216 22.1634 1.79195 22.5046 0.730945C21.623 1.25162 20.6468 1.62998 19.6079 1.83401C18.7751 0.950854 17.5896 0.398438 16.2778 0.398438C13.7582 0.398438 11.7151 2.43354 11.7151 4.94195C11.7151 5.29864 11.7553 5.64526 11.8332 5.97802C8.04202 5.78834 4.68003 3.97995 2.43028 1.23071C2.03804 1.90203 1.8122 2.68241 1.8122 3.51444C1.8122 5.09083 2.61767 6.48257 3.84244 7.29696C3.09413 7.27404 2.39108 7.06899 1.77629 6.72843C1.77528 6.74732 1.77528 6.76646 1.77528 6.78636C1.77528 8.98721 3.34803 10.8246 5.43518 11.241C5.05204 11.345 4.64893 11.4009 4.23266 11.4009C3.9388 11.4009 3.65302 11.3717 3.37509 11.319C3.95574 13.1242 5.64002 14.4381 7.63688 14.4751C6.07525 15.694 4.10824 16.4203 1.97102 16.4203C1.60306 16.4203 1.2399 16.3994 0.882812 16.3573C2.90167 17.646 5.29887 18.3984 7.87561 18.3984Z" fill="white"/>
</svg>
