<svg width="36" height="36" viewBox="0 0 36 36" fill="none" xmlns="http://www.w3.org/2000/svg">
<circle cx="18" cy="18" r="17.5" transform="matrix(-1 0 0 1 36 0)" stroke="#222831"/>
<path d="M11.8011 17.6539L15.8873 13.5676C16.0201 13.4348 16.236 13.4348 16.3688 13.5676C16.5016 13.7004 16.5016 13.9163 16.3688 14.0491L12.8642 17.5537L23.9603 17.5537C24.1482 17.5537 24.3008 17.7063 24.3008 17.8943C24.3008 18.0822 24.1482 18.2348 23.9603 18.2348L12.8642 18.2348L16.3688 21.7394C16.5016 21.8722 16.5016 22.0881 16.3688 22.2209C16.302 22.2876 16.2149 22.3203 16.1277 22.3203C16.0405 22.3203 15.9533 22.2869 15.8866 22.2209L11.8004 18.1347C11.6676 18.0019 11.6676 17.786 11.8004 17.6532L11.8011 17.6539Z" fill="#222831"/>
</svg>
