<svg width="36" height="36" viewBox="0 0 36 36" fill="none" xmlns="http://www.w3.org/2000/svg">
<circle cx="18" cy="18" r="17.5" stroke="#222831"/>
<path d="M24.1989 17.6539L20.1127 13.5676C19.9799 13.4348 19.764 13.4348 19.6312 13.5676C19.4984 13.7004 19.4984 13.9163 19.6312 14.0491L23.1358 17.5537L12.0397 17.5537C11.8518 17.5537 11.6992 17.7063 11.6992 17.8943C11.6992 18.0822 11.8518 18.2348 12.0397 18.2348L23.1358 18.2348L19.6312 21.7394C19.4984 21.8722 19.4984 22.0881 19.6312 22.2209C19.698 22.2876 19.7851 22.3203 19.8723 22.3203C19.9595 22.3203 20.0467 22.2869 20.1134 22.2209L24.1996 18.1347C24.3324 18.0019 24.3324 17.786 24.1996 17.6532L24.1989 17.6539Z" fill="#222831"/>
</svg>
